<svg width="69" height="88" viewBox="0 0 69 88" fill="none" xmlns="http://www.w3.org/2000/svg">
<path d="M52.8509 32.2667H16.1487C15.3384 32.2667 14.6807 32.9223 14.6807 33.7333C14.6807 34.5444 15.3384 35.2 16.1487 35.2H52.8509C53.6613 35.2 54.319 34.5444 54.319 33.7333C54.319 32.9223 53.6613 32.2667 52.8509 32.2667Z" fill="url(#paint0_linear)"/>
<path d="M16.1487 23.4667H30.8296C31.64 23.4667 32.2977 22.8111 32.2977 22C32.2977 21.1889 31.64 20.5333 30.8296 20.5333H16.1487C15.3384 20.5333 14.6807 21.1889 14.6807 22C14.6807 22.8111 15.3384 23.4667 16.1487 23.4667Z" fill="url(#paint1_linear)"/>
<path d="M52.8509 44H16.1487C15.3384 44 14.6807 44.6556 14.6807 45.4667C14.6807 46.2777 15.3384 46.9333 16.1487 46.9333H52.8509C53.6613 46.9333 54.319 46.2777 54.319 45.4667C54.319 44.6556 53.6613 44 52.8509 44Z" fill="url(#paint2_linear)"/>
<path d="M52.8509 55.7333H16.1487C15.3384 55.7333 14.6807 56.3889 14.6807 57.2C14.6807 58.0111 15.3384 58.6667 16.1487 58.6667H52.8509C53.6613 58.6667 54.319 58.0111 54.319 57.2C54.319 56.3889 53.6613 55.7333 52.8509 55.7333Z" fill="url(#paint3_linear)"/>
<path d="M52.8509 67.4667H16.1487C15.3384 67.4667 14.6807 68.1223 14.6807 68.9333C14.6807 69.7444 15.3384 70.4 16.1487 70.4H52.8509C53.6613 70.4 54.319 69.7444 54.319 68.9333C54.319 68.1223 53.6613 67.4667 52.8509 67.4667Z" fill="url(#paint4_linear)"/>
<path d="M47.5865 0H0V88H69V21.3928L47.5865 0ZM48.4468 5.0072L63.988 20.5333H48.4468V5.0072ZM2.93617 85.0667V2.93333H45.5106V23.4667H66.0638V85.0667H2.93617Z" fill="url(#paint5_linear)"/>
<defs>
<linearGradient id="paint0_linear" x1="60.2175" y1="34.8421" x2="58.2273" y2="23.988" gradientUnits="userSpaceOnUse">
<stop stop-color="#776AC4"/>
<stop offset="1" stop-color="#21B576"/>
</linearGradient>
<linearGradient id="paint1_linear" x1="34.9193" y1="23.1087" x2="30.9639" y2="13.5215" gradientUnits="userSpaceOnUse">
<stop stop-color="#776AC4"/>
<stop offset="1" stop-color="#21B576"/>
</linearGradient>
<linearGradient id="paint2_linear" x1="60.2175" y1="46.5754" x2="58.2273" y2="35.7213" gradientUnits="userSpaceOnUse">
<stop stop-color="#776AC4"/>
<stop offset="1" stop-color="#21B576"/>
</linearGradient>
<linearGradient id="paint3_linear" x1="60.2175" y1="58.3087" x2="58.2273" y2="47.4546" gradientUnits="userSpaceOnUse">
<stop stop-color="#776AC4"/>
<stop offset="1" stop-color="#21B576"/>
</linearGradient>
<linearGradient id="paint4_linear" x1="60.2175" y1="70.0421" x2="58.2273" y2="59.188" gradientUnits="userSpaceOnUse">
<stop stop-color="#776AC4"/>
<stop offset="1" stop-color="#21B576"/>
</linearGradient>
<linearGradient id="paint5_linear" x1="79.2679" y1="77.2619" x2="-17.5449" y2="46.6256" gradientUnits="userSpaceOnUse">
<stop stop-color="#776AC4"/>
<stop offset="1" stop-color="#21B576"/>
</linearGradient>
</defs>
</svg>
