<svg width="168" height="168" viewBox="0 0 168 168" fill="none" xmlns="http://www.w3.org/2000/svg">
<path d="M127.7 91.2902C126.439 89.5283 124.338 88.3443 122.217 88.2003C120.487 88.0829 118.918 88.6683 117.802 89.8493C117.557 90.1084 117.293 90.393 117.014 90.6978C115.779 89.567 114.162 88.8393 112.531 88.7284C110.799 88.6113 109.231 89.1963 108.115 90.3774C105.686 92.9487 101.386 97.971 98.0085 101.969C97.568 101.709 97.0965 101.494 96.598 101.333C94.9835 100.637 72.7295 91.1332 62.865 91.1332C46.9304 91.1332 39.61 99.6978 39.306 100.063C38.84 100.622 38.9156 101.451 39.4734 101.919C40.0313 102.387 40.8636 102.313 41.3331 101.757C41.35 101.737 43.0602 99.7348 46.5533 97.7616C49.7731 95.943 55.2166 93.7752 62.865 93.7752C72.3419 93.7752 95.3795 103.684 95.6112 103.784C95.6537 103.803 95.6973 103.819 95.7416 103.833C96.8418 104.176 97.7425 104.927 98.2778 105.948C98.813 106.969 98.9187 108.137 98.5752 109.237C98.2521 110.272 97.5295 111.17 96.5861 111.705C95.5303 112.302 94.2847 112.375 93.1279 112.058L78.7147 108.089C78.0114 107.896 77.284 108.308 77.0903 109.012C76.8966 109.715 77.3097 110.442 78.013 110.636L92.4061 114.6C95.2438 115.475 98.4191 114.402 100.134 111.977C100.555 111.382 100.88 110.72 101.097 110.024C101.278 109.445 101.38 108.855 101.407 108.265L105.273 107.858C105.615 107.822 105.93 107.654 106.15 107.389C106.245 107.275 115.724 95.8955 119.723 91.6632C121.385 89.9038 124.352 91.151 125.552 92.8276C127.397 95.4056 125.104 98.2202 124.357 99.0216C120.687 102.959 113.958 111.07 112.749 112.532L85.362 126.226L59.1509 115.19C58.9887 115.121 58.8143 115.086 58.6381 115.086H40.321C39.5915 115.086 39 115.678 39 116.407C39 117.137 39.5915 117.728 40.321 117.728H58.3713L84.8966 128.897C85.0608 128.966 85.2351 129 85.4092 129C85.6118 129 85.8145 128.953 86 128.861L114.18 114.77C114.345 114.688 114.491 114.572 114.608 114.43C114.685 114.336 122.388 105.009 126.29 100.823C129.162 97.7409 129.703 94.0879 127.7 91.2902ZM104.464 105.287L101.022 105.649C100.778 104.958 100.426 104.309 99.9827 103.726C102.86 100.321 107.535 94.8396 110.036 92.192C110.759 91.427 111.695 91.3203 112.352 91.3644C113.387 91.4349 114.449 91.9234 115.248 92.6622C111.284 97.1362 105.888 103.581 104.464 105.287Z" fill="url(#paint0_linear)"/>
<path d="M113.589 65.771H102.229V50.8004C102.229 50.0709 101.638 49.4794 100.908 49.4794C100.178 49.4794 99.5871 50.0709 99.5871 50.8004V67.092C99.5871 67.8215 100.178 68.413 100.908 68.413H110.018L84 90.7144L57.9817 68.413H67.0919C67.8214 68.413 68.4129 67.8215 68.4129 67.092V41.6418H99.5872V44.724C99.5872 45.4535 100.179 46.045 100.908 46.045C101.638 46.045 102.229 45.4535 102.229 44.724V40.321C102.229 39.5915 101.638 39 100.908 39H67.0921C66.3626 39 65.7711 39.5915 65.7711 40.321V65.7712H54.411C53.2131 65.7712 52.6395 67.3135 53.5513 68.095L83.1404 93.4571C83.6291 93.876 84.3711 93.876 84.8597 93.4571L114.449 68.095C115.361 67.3133 114.787 65.771 113.589 65.771Z" fill="url(#paint1_linear)"/>
<path d="M93.3881 47.841C92.8721 47.3251 92.0359 47.3251 91.5199 47.841L74.6119 64.7491C73.7982 65.5626 74.3909 67.004 75.546 67.004C75.884 67.004 76.2222 66.8752 76.4799 66.6172L93.388 49.7091C93.9041 49.1932 93.9041 48.3568 93.3881 47.841Z" fill="url(#paint2_linear)"/>
<path d="M91.0452 58.7261C88.763 58.7261 86.9062 60.5829 86.9062 62.865C86.9062 65.1472 88.763 67.004 91.0452 67.004C93.3274 67.004 95.1842 65.1472 95.1842 62.865C95.1842 60.5829 93.3274 58.7261 91.0452 58.7261ZM91.0452 64.3622C90.2197 64.3622 89.5481 63.6907 89.5481 62.865C89.5481 62.0394 90.2196 61.3679 91.0452 61.3679C91.8707 61.3679 92.5423 62.0394 92.5423 62.865C92.5423 63.6907 91.8707 64.3622 91.0452 64.3622Z" fill="url(#paint3_linear)"/>
<path d="M76.9551 47.4541C74.6729 47.4541 72.8162 49.3109 72.8162 51.5931C72.8162 53.8752 74.6729 55.732 76.9551 55.732C79.2373 55.732 81.0941 53.8752 81.0941 51.5931C81.0941 49.3109 79.2375 47.4541 76.9551 47.4541ZM76.9551 53.0902C76.1296 53.0902 75.458 52.4187 75.458 51.5931C75.458 50.7674 76.1295 50.0959 76.9551 50.0959C77.7808 50.0959 78.4522 50.7674 78.4522 51.5931C78.4522 52.4187 77.7806 53.0902 76.9551 53.0902Z" fill="url(#paint4_linear)"/>
<defs>
<linearGradient id="paint0_linear" x1="142.273" y1="124.02" x2="64.7602" y2="55.1168" gradientUnits="userSpaceOnUse">
<stop stop-color="#776AC4"/>
<stop offset="1" stop-color="#21B576"/>
</linearGradient>
<linearGradient id="paint1_linear" x1="124.093" y1="87.0879" x2="45.0879" y2="51.1133" gradientUnits="userSpaceOnUse">
<stop stop-color="#776AC4"/>
<stop offset="1" stop-color="#21B576"/>
</linearGradient>
<linearGradient id="paint2_linear" x1="96.6828" y1="64.6185" x2="70.7421" y2="54.1545" gradientUnits="userSpaceOnUse">
<stop stop-color="#776AC4"/>
<stop offset="1" stop-color="#21B576"/>
</linearGradient>
<linearGradient id="paint3_linear" x1="96.416" y1="65.9939" x2="85.4281" y2="61.5593" gradientUnits="userSpaceOnUse">
<stop stop-color="#776AC4"/>
<stop offset="1" stop-color="#21B576"/>
</linearGradient>
<linearGradient id="paint4_linear" x1="82.3259" y1="54.7219" x2="71.338" y2="50.2873" gradientUnits="userSpaceOnUse">
<stop stop-color="#776AC4"/>
<stop offset="1" stop-color="#21B576"/>
</linearGradient>
</defs>
</svg>
