<svg width="91" height="90" viewBox="0 0 91 90" fill="none" xmlns="http://www.w3.org/2000/svg">
<path d="M47.0328 39C52.8228 39 57.5328 34.2885 57.5328 28.5C57.5328 22.7115 52.8228 18 47.0328 18C41.2428 18 36.5328 22.7115 36.5328 28.5C36.5328 34.2885 41.2428 39 47.0328 39ZM47.0328 21C51.1683 21 54.5328 24.3645 54.5328 28.5C54.5328 32.6355 51.1683 36 47.0328 36C42.8973 36 39.5328 32.6355 39.5328 28.5C39.5328 24.3645 42.8973 21 47.0328 21Z" fill="url(#paint0_linear)"/>
<path d="M46.7673 82.1354L69.7788 48.8999C78.4098 37.3919 77.1603 18.4801 67.1073 8.42706C61.6743 2.99256 54.4503 0 46.7673 0C39.0843 0 31.8603 2.99241 26.4273 8.42541C16.3728 18.4784 15.1233 37.3934 23.7213 48.8534L46.7673 82.1354ZM28.5483 10.5465C33.4143 5.68051 39.8853 3 46.7673 3C53.6493 3 60.1188 5.68051 64.9863 10.5465C74.0598 19.62 75.1773 36.7021 67.3458 47.1451L46.7673 76.8645L26.1558 47.1C18.3558 36.702 19.4733 19.62 28.5483 10.5465Z" fill="url(#paint1_linear)"/>
<path d="M1.50184 86.3791L0.44134 87.4394C-0.14516 88.0259 -0.14516 88.974 0.44134 89.5605C0.733839 89.853 1.11784 90 1.50184 90C1.88584 90 2.26984 89.853 2.56234 89.5605L3.62284 88.5C4.20934 87.9135 4.20934 86.9656 3.62284 86.3791C3.03634 85.7926 2.08834 85.7926 1.50184 86.3791Z" fill="url(#paint2_linear)"/>
<path d="M12.9258 78C12.0978 78 11.4258 78.6705 11.4258 79.5C11.4258 80.3295 12.0978 81 12.9258 81H15.6559C16.4839 81 17.1558 80.3295 17.1558 79.5C17.1558 78.6705 16.4839 78 15.6559 78H12.9258Z" fill="url(#paint3_linear)"/>
<path d="M9.41435 80.5876C8.82785 80.0011 7.87985 80.0011 7.29335 80.5876L5.36285 82.5181C4.77635 83.1046 4.77635 84.0527 5.36285 84.6392C5.65535 84.9317 6.03935 85.0786 6.42335 85.0786C6.80735 85.0786 7.19135 84.9317 7.48385 84.6392L9.41435 82.7087C10.0009 82.1222 10.0009 81.1726 9.41435 80.5876Z" fill="url(#paint4_linear)"/>
<path d="M29.3104 78C28.4824 78 27.8104 78.6705 27.8104 79.5C27.8104 80.3295 28.4824 81 29.3104 81H32.0404C32.8684 81 33.5404 80.3295 33.5404 79.5C33.5404 78.6705 32.8684 78 32.0404 78H29.3104Z" fill="url(#paint5_linear)"/>
<path d="M21.1173 78C20.2893 78 19.6173 78.6705 19.6173 79.5C19.6173 80.3295 20.2893 81 21.1173 81H23.8488C24.6768 81 25.3488 80.3295 25.3488 79.5C25.3488 78.6705 24.6768 78 23.8488 78H21.1173Z" fill="url(#paint6_linear)"/>
<path d="M37.5018 78C36.6738 78 36.0018 78.6705 36.0018 79.5C36.0018 80.3295 36.6738 81 37.5018 81H39.0018C39.8298 81 40.5018 80.3295 40.5018 79.5C40.5018 78.6705 39.8298 78 39.0018 78H37.5018Z" fill="url(#paint7_linear)"/>
<path d="M1.50186 80.6371C1.88586 80.6371 2.26986 80.4899 2.56236 80.1974L8.37637 74.3835C8.51887 74.241 8.67487 74.1135 8.89987 73.9755L9.18936 73.8195C9.24186 73.788 9.29286 73.7565 9.34836 73.7325L9.90935 73.5601C10.1059 73.5226 10.3039 73.5 10.5019 73.5H33.0018C33.8298 73.5 34.5018 72.8295 34.5018 72C34.5018 71.1705 33.8298 70.5 33.0018 70.5H10.5019C10.1179 70.5 9.72336 70.539 9.31536 70.6185C9.17136 70.65 9.03337 70.6919 8.89687 70.7369L8.70035 70.7955C8.53235 70.8405 8.36437 70.8915 8.21137 70.9545C8.03287 71.028 7.86485 71.1179 7.69835 71.2139L7.55585 71.2919C7.42835 71.3564 7.30237 71.4224 7.17037 71.5109C6.83887 71.7314 6.53136 71.9851 6.25386 72.2626L0.439875 78.0765C-0.146625 78.663 -0.146625 79.6109 0.439875 80.1974C0.733874 80.4899 1.11786 80.6371 1.50186 80.6371Z" fill="url(#paint8_linear)"/>
<path d="M87.4413 73.0605C87.8253 73.0605 88.2093 72.9133 88.5018 72.6208L89.5623 71.5605C90.1488 70.974 90.1488 70.0259 89.5623 69.4394C88.9758 68.8529 88.0278 68.8529 87.4413 69.4394L86.3808 70.4999C85.7943 71.0864 85.7943 72.0343 86.3808 72.6208C86.6733 72.9133 87.0573 73.0605 87.4413 73.0605Z" fill="url(#paint9_linear)"/>
<path d="M81.8508 75.03L79.5858 77.295C78.9993 77.8815 78.9993 78.8294 79.5858 79.4159C79.8783 79.7084 80.2623 79.8555 80.6463 79.8555C81.0303 79.8555 81.4143 79.7084 81.7068 79.4159L83.9718 77.1509C84.5583 76.5644 84.5583 75.6165 83.9718 75.03C83.3853 74.4435 82.4373 74.4435 81.8508 75.03Z" fill="url(#paint10_linear)"/>
<path d="M71.5143 78C70.6848 78 70.0143 78.6705 70.0143 79.5C70.0143 80.3295 70.6848 81 71.5143 81H74.7168C75.5463 81 76.2168 80.3295 76.2168 79.5C76.2168 78.6705 75.5463 78 74.7168 78H71.5143Z" fill="url(#paint11_linear)"/>
<path d="M61.9068 78C61.0788 78 60.4068 78.6705 60.4068 79.5C60.4068 80.3295 61.0788 81 61.9068 81H65.1093C65.9373 81 66.6093 80.3295 66.6093 79.5C66.6093 78.6705 65.9373 78 65.1093 78H61.9068Z" fill="url(#paint12_linear)"/>
<path d="M54.0018 78C53.1738 78 52.5018 78.6705 52.5018 79.5C52.5018 80.3295 53.1738 81 54.0018 81H55.5018C56.3298 81 57.0018 80.3295 57.0018 79.5C57.0018 78.6705 56.3298 78 55.5018 78H54.0018Z" fill="url(#paint13_linear)"/>
<path d="M87.4413 78.8026L81.6273 84.6166C81.4863 84.7576 81.3318 84.8835 81.1068 85.023L80.8248 85.1761C80.7648 85.2091 80.7063 85.2466 80.6463 85.2706C80.5998 85.2901 80.5503 85.3005 80.5008 85.314L80.0838 85.44C79.8933 85.479 79.6983 85.5 79.5018 85.5H11.8368L9.56133 87.3315C8.91633 87.852 8.81284 88.797 9.33334 89.4405C9.62884 89.808 10.0638 90 10.5018 90C10.8318 90 11.1648 89.8921 11.4408 89.6686L12.8943 88.5H79.5018C79.8918 88.5 80.2878 88.461 80.6703 88.383C80.8233 88.353 80.9673 88.3095 81.1128 88.2614L81.3003 88.206C81.4683 88.1595 81.6348 88.11 81.8028 88.0395C81.9783 87.966 82.1433 87.8775 82.3083 87.783L82.4568 87.7021C82.5858 87.6376 82.7118 87.57 82.8273 87.492C83.1588 87.2715 83.4693 87.018 83.7483 86.7375L89.5623 80.9235C90.1488 80.337 90.1488 79.3891 89.5623 78.8026C88.9758 78.2161 88.0278 78.2176 87.4413 78.8026Z" fill="url(#paint14_linear)"/>
<path d="M58.5018 71.9999C58.5018 72.8294 59.1738 73.4999 60.0018 73.4999H78.2598L83.1993 68.5605C83.7858 67.974 83.7858 67.0259 83.1993 66.4394C82.6128 65.8529 81.6648 65.8529 81.0783 66.4394L77.0178 70.4999H60.0018C59.1738 70.4999 58.5018 71.1704 58.5018 71.9999Z" fill="url(#paint15_linear)"/>
<defs>
<linearGradient id="paint0_linear" x1="60.6578" y1="36.4375" x2="32.7828" y2="25.1875" gradientUnits="userSpaceOnUse">
<stop stop-color="#776AC4"/>
<stop offset="1" stop-color="#21B576"/>
</linearGradient>
<linearGradient id="paint1_linear" x1="84.0869" y1="72.1129" x2="1.861" y2="48.8708" gradientUnits="userSpaceOnUse">
<stop stop-color="#776AC4"/>
<stop offset="1" stop-color="#21B576"/>
</linearGradient>
<linearGradient id="paint2_linear" x1="4.66707" y1="89.5045" x2="-0.723585" y2="87.3286" gradientUnits="userSpaceOnUse">
<stop stop-color="#776AC4"/>
<stop offset="1" stop-color="#21B576"/>
</linearGradient>
<linearGradient id="paint3_linear" x1="18.0085" y1="80.6339" x2="12.4605" y2="76.3572" gradientUnits="userSpaceOnUse">
<stop stop-color="#776AC4"/>
<stop offset="1" stop-color="#21B576"/>
</linearGradient>
<linearGradient id="paint4_linear" x1="10.588" y1="84.4769" x2="4.04252" y2="81.835" gradientUnits="userSpaceOnUse">
<stop stop-color="#776AC4"/>
<stop offset="1" stop-color="#21B576"/>
</linearGradient>
<linearGradient id="paint5_linear" x1="34.3931" y1="80.6339" x2="28.845" y2="76.3572" gradientUnits="userSpaceOnUse">
<stop stop-color="#776AC4"/>
<stop offset="1" stop-color="#21B576"/>
</linearGradient>
<linearGradient id="paint6_linear" x1="26.2017" y1="80.6339" x2="20.6533" y2="76.3558" gradientUnits="userSpaceOnUse">
<stop stop-color="#776AC4"/>
<stop offset="1" stop-color="#21B576"/>
</linearGradient>
<linearGradient id="paint7_linear" x1="41.1715" y1="80.6339" x2="36.0883" y2="77.5566" gradientUnits="userSpaceOnUse">
<stop stop-color="#776AC4"/>
<stop offset="1" stop-color="#21B576"/>
</linearGradient>
<linearGradient id="paint8_linear" x1="39.636" y1="79.4001" x2="21.1879" y2="54.0594" gradientUnits="userSpaceOnUse">
<stop stop-color="#776AC4"/>
<stop offset="1" stop-color="#21B576"/>
</linearGradient>
<linearGradient id="paint9_linear" x1="90.6065" y1="72.5649" x2="85.2158" y2="70.3892" gradientUnits="userSpaceOnUse">
<stop stop-color="#776AC4"/>
<stop offset="1" stop-color="#21B576"/>
</linearGradient>
<linearGradient id="paint10_linear" x1="85.1953" y1="79.213" x2="78.2057" y2="76.3919" gradientUnits="userSpaceOnUse">
<stop stop-color="#776AC4"/>
<stop offset="1" stop-color="#21B576"/>
</linearGradient>
<linearGradient id="paint11_linear" x1="77.1398" y1="80.6339" x2="71.4955" y2="75.9243" gradientUnits="userSpaceOnUse">
<stop stop-color="#776AC4"/>
<stop offset="1" stop-color="#21B576"/>
</linearGradient>
<linearGradient id="paint12_linear" x1="67.5323" y1="80.6339" x2="61.888" y2="75.9243" gradientUnits="userSpaceOnUse">
<stop stop-color="#776AC4"/>
<stop offset="1" stop-color="#21B576"/>
</linearGradient>
<linearGradient id="paint13_linear" x1="57.6715" y1="80.6339" x2="52.5883" y2="77.5566" gradientUnits="userSpaceOnUse">
<stop stop-color="#776AC4"/>
<stop offset="1" stop-color="#21B576"/>
</linearGradient>
<linearGradient id="paint14_linear" x1="102.056" y1="88.5801" x2="87.9947" y2="49.0786" gradientUnits="userSpaceOnUse">
<stop stop-color="#776AC4"/>
<stop offset="1" stop-color="#21B576"/>
</linearGradient>
<linearGradient id="paint15_linear" x1="87.3799" y1="72.5847" x2="73.6668" y2="54.0363" gradientUnits="userSpaceOnUse">
<stop stop-color="#776AC4"/>
<stop offset="1" stop-color="#21B576"/>
</linearGradient>
</defs>
</svg>
