<svg width="94" height="90" viewBox="0 0 94 90" fill="none" xmlns="http://www.w3.org/2000/svg">
<path d="M87.7539 37.3694H69.25C68.3111 37.3694 67.5522 38.1283 67.5522 39.0671C67.5522 40.006 68.3111 40.7649 69.25 40.7649H84.703L89.6248 86.6045H3.85052L9.628 40.7649H25.1082C26.047 40.7649 26.8059 40.006 26.8059 39.0671C26.8059 38.1283 26.047 37.3694 25.1082 37.3694H6.63315L0 90H93.4057L87.7539 37.3694Z" fill="url(#paint0_linear)"/>
<path d="M45.2517 64.4572C45.0021 64.6049 44.7356 64.7356 44.4962 64.8901C44.1227 65.1312 43.7577 65.3842 43.3994 65.6456C42.6439 66.2008 42.4809 67.2636 43.0344 68.0191C43.3672 68.4724 43.8833 68.7118 44.4062 68.7118C44.7542 68.7118 45.1057 68.6048 45.4096 68.3841C45.7118 68.1617 46.0191 67.9478 46.34 67.7407C46.8849 67.3875 47.4639 67.0565 48.0615 66.7543C48.856 66.3519 49.1786 65.4113 48.8458 64.5998C48.8594 64.5862 48.8764 64.576 48.8883 64.5624C51.9595 61.3095 62.3091 49.1196 66.5942 28.811C67.4635 24.6922 67.6587 20.7398 67.1749 17.0642C65.7148 5.90142 58.7794 0 47.1192 0C35.4624 0 28.527 5.90142 27.0636 17.0642C26.5814 20.7415 26.7767 24.6939 27.6459 28.811C31.8886 48.9227 42.0752 61.0651 45.2517 64.4572ZM30.4302 17.5073C31.6747 8.01343 37.1347 3.39722 47.1209 3.39722C57.1089 3.39722 62.5672 8.01343 63.8099 17.5073C64.2428 20.801 64.0612 24.3714 63.2734 28.1132C59.4212 46.3692 50.2363 57.9531 47.1209 61.4674C44.0021 57.9497 34.8189 46.3608 30.9684 28.1132C30.179 24.3714 29.999 20.8027 30.4302 17.5073Z" fill="url(#paint1_linear)"/>
<path d="M47.1217 32.1266C53.9993 32.1266 59.5934 26.5325 59.5934 19.6549C59.5934 12.7772 53.9993 7.18311 47.1217 7.18311C40.244 7.18311 34.6499 12.7772 34.6499 19.6549C34.6499 26.5325 40.244 32.1266 47.1217 32.1266ZM47.1217 10.5803C52.125 10.5803 56.1979 14.6516 56.1979 19.6566C56.1979 24.6616 52.1266 28.7328 47.1217 28.7328C42.1167 28.7328 38.0454 24.6616 38.0454 19.6566C38.0454 14.6516 42.1184 10.5803 47.1217 10.5803Z" fill="url(#paint2_linear)"/>
<path d="M53.357 61.4046C52.4402 61.5982 51.8562 62.5014 52.0514 63.4199C52.2212 64.2178 52.9258 64.7628 53.7101 64.7628C53.8273 64.7628 53.9478 64.7509 54.0667 64.7254C55.0615 64.5149 56.1396 64.3367 57.2686 64.1941C58.199 64.0803 58.8611 63.2314 58.744 62.3011C58.6285 61.369 57.7881 60.6967 56.851 60.8257C55.6235 60.9768 54.4469 61.172 53.357 61.4046Z" fill="url(#paint3_linear)"/>
<path d="M62.1365 62.0939C62.1739 63.0056 62.9277 63.7186 63.8309 63.7186C63.8564 63.7186 63.8801 63.7186 63.9056 63.7169L67.3028 63.576C68.2383 63.5336 68.9649 62.739 68.9208 61.8036C68.8783 60.8647 68.0057 60.133 67.1483 60.1839L63.7596 60.3248C62.8224 60.3639 62.0958 61.155 62.1365 62.0939Z" fill="url(#paint4_linear)"/>
<path d="M38.0858 69.9053C37.2131 70.5641 36.3116 71.1973 35.4033 71.7848C34.6173 72.2958 34.3932 73.3467 34.9042 74.1345C35.2285 74.6353 35.7751 74.9069 36.3303 74.9069C36.6478 74.9069 36.967 74.8187 37.2539 74.6336C38.2267 74.002 39.1961 73.3229 40.1316 72.6167C40.8786 72.0513 41.028 70.9868 40.4644 70.2381C39.899 69.4962 38.8379 69.34 38.0858 69.9053Z" fill="url(#paint5_linear)"/>
<path d="M75.9241 58.7101C75.3503 59.1125 74.605 59.4045 73.6389 59.6032C72.7204 59.7916 72.1296 60.6914 72.3198 61.6099C72.4861 62.413 73.1924 62.9647 73.9819 62.9647C74.0956 62.9647 74.2111 62.9528 74.3265 62.9291C75.756 62.6337 76.9173 62.1617 77.885 61.4809L78.1125 61.3145C78.8595 60.7475 79.0072 59.683 78.4419 58.9359C77.8748 58.1889 76.812 58.0429 76.0633 58.6066L75.9241 58.7101Z" fill="url(#paint6_linear)"/>
<path d="M15.0418 71.9849C15.2879 71.08 14.7514 70.1479 13.8465 69.9034C12.9484 69.6505 12.0096 70.1904 11.7651 71.0987C11.5512 71.8864 11.4238 72.6912 11.3831 73.484C11.3746 73.6793 11.3695 73.8762 11.3695 74.0833C11.3712 74.4161 11.3865 74.7489 11.4187 75.0799C11.5087 75.9543 12.2456 76.6045 13.1063 76.6045C13.1623 76.6045 13.2201 76.6011 13.2812 76.596C14.2133 76.4992 14.8924 75.6673 14.799 74.7336C14.7752 74.5112 14.7667 74.2854 14.765 74.0714C14.765 73.9305 14.7701 73.7896 14.7769 73.6504C14.8041 73.1003 14.8924 72.5384 15.0418 71.9849Z" fill="url(#paint7_linear)"/>
<path d="M75.8862 45.5136C74.5382 45.3336 73.163 45.444 71.8353 45.8209C70.9321 46.0738 70.4075 47.0127 70.6639 47.9142C70.8744 48.6629 71.5552 49.1519 72.2954 49.1519C72.4499 49.1519 72.6044 49.1315 72.7572 49.0874C73.6401 48.8395 74.5484 48.7614 75.4312 48.8802C76.3853 48.9991 77.2172 48.3522 77.3412 47.4253C77.4668 46.4932 76.8149 45.6392 75.8862 45.5136Z" fill="url(#paint8_linear)"/>
<path d="M79.2649 53.9243C78.9882 54.819 79.4907 55.7715 80.3855 56.0465C80.5535 56.0991 80.7199 56.1229 80.8863 56.1229C81.613 56.1229 82.2836 55.656 82.5077 54.926C82.6757 54.3861 82.7793 53.8377 82.8184 53.291C82.8268 53.1501 82.8319 53.0075 82.8319 52.8666C82.8319 52.0721 82.6859 51.2758 82.399 50.5033C82.073 49.6222 81.09 49.1774 80.2174 49.5016C79.3363 49.8276 78.8897 50.8055 79.2157 51.6833C79.3617 52.0772 79.4364 52.4761 79.4364 52.8649L79.4313 53.0635C79.411 53.3454 79.3566 53.6272 79.2649 53.9243Z" fill="url(#paint9_linear)"/>
<path d="M29.6783 74.9765C28.6834 75.4434 27.6699 75.8763 26.6665 76.2651C25.7922 76.6012 25.3575 77.5842 25.6954 78.4603C25.9551 79.1326 26.5969 79.5469 27.2794 79.5469C27.4831 79.5469 27.6903 79.5112 27.8906 79.4331C28.9687 79.0172 30.0552 78.552 31.1214 78.0528C31.9703 77.6556 32.3353 76.6437 31.9364 75.7948C31.5408 74.9442 30.5323 74.5758 29.6783 74.9765Z" fill="url(#paint10_linear)"/>
<path d="M17.3185 67.9088C17.5918 67.9088 17.8702 67.8426 18.13 67.7017C18.619 67.4352 19.1402 67.2688 19.6767 67.211C19.9059 67.1839 20.1402 67.1839 20.366 67.2144C21.3218 67.3384 22.1486 66.683 22.2708 65.7544C22.3931 64.824 21.7394 63.9717 20.8108 63.8495C20.3048 63.7833 19.7904 63.7799 19.2981 63.8359C18.3235 63.9429 17.383 64.2417 16.5035 64.7204C15.6801 65.1703 15.3762 66.1992 15.8261 67.0226C16.1351 67.5896 16.7175 67.9088 17.3185 67.9088Z" fill="url(#paint11_linear)"/>
<path d="M16.9654 81.221C17.3321 81.3161 17.7056 81.3874 18.0757 81.4315C18.5104 81.4842 18.945 81.5113 19.3813 81.5113C19.9127 81.5113 20.4458 81.474 20.9772 81.4061C21.9076 81.2889 22.568 80.44 22.4492 79.5097C22.3303 78.5793 21.4865 77.924 20.5528 78.0377C19.8669 78.126 19.1742 78.1464 18.4883 78.0632C18.2642 78.0343 18.0401 77.9919 17.8194 77.9358C16.9111 77.6931 15.9858 78.2431 15.7481 79.1514C15.5155 80.0597 16.0588 80.9867 16.9654 81.221Z" fill="url(#paint12_linear)"/>
<defs>
<linearGradient id="paint0_linear" x1="107.305" y1="83.5778" x2="12.0134" y2="15.3236" gradientUnits="userSpaceOnUse">
<stop stop-color="#776AC4"/>
<stop offset="1" stop-color="#21B576"/>
</linearGradient>
<linearGradient id="paint1_linear" x1="73.4795" y1="60.3273" x2="14.1458" y2="46.1684" gradientUnits="userSpaceOnUse">
<stop stop-color="#776AC4"/>
<stop offset="1" stop-color="#21B576"/>
</linearGradient>
<linearGradient id="paint2_linear" x1="63.3052" y1="29.0829" x2="30.1957" y2="15.7203" gradientUnits="userSpaceOnUse">
<stop stop-color="#776AC4"/>
<stop offset="1" stop-color="#21B576"/>
</linearGradient>
<linearGradient id="paint3_linear" x1="59.7609" y1="64.2804" x2="52.6991" y2="59.4184" gradientUnits="userSpaceOnUse">
<stop stop-color="#776AC4"/>
<stop offset="1" stop-color="#21B576"/>
</linearGradient>
<linearGradient id="paint4_linear" x1="69.9328" y1="63.287" x2="63.3835" y2="58.2148" gradientUnits="userSpaceOnUse">
<stop stop-color="#776AC4"/>
<stop offset="1" stop-color="#21B576"/>
</linearGradient>
<linearGradient id="paint5_linear" x1="41.7251" y1="74.255" x2="33.896" y2="70.6024" gradientUnits="userSpaceOnUse">
<stop stop-color="#776AC4"/>
<stop offset="1" stop-color="#21B576"/>
</linearGradient>
<linearGradient id="paint6_linear" x1="79.753" y1="62.3911" x2="72.1013" y2="58.1203" gradientUnits="userSpaceOnUse">
<stop stop-color="#776AC4"/>
<stop offset="1" stop-color="#21B576"/>
</linearGradient>
<linearGradient id="paint7_linear" x1="15.6569" y1="75.7792" x2="10.1684" y2="74.5569" gradientUnits="userSpaceOnUse">
<stop stop-color="#776AC4"/>
<stop offset="1" stop-color="#21B576"/>
</linearGradient>
<linearGradient id="paint8_linear" x1="78.3623" y1="48.6976" x2="71.5744" y2="43.7246" gradientUnits="userSpaceOnUse">
<stop stop-color="#776AC4"/>
<stop offset="1" stop-color="#21B576"/>
</linearGradient>
<linearGradient id="paint9_linear" x1="83.3859" y1="55.302" x2="77.9125" y2="54.0796" gradientUnits="userSpaceOnUse">
<stop stop-color="#776AC4"/>
<stop offset="1" stop-color="#21B576"/>
</linearGradient>
<linearGradient id="paint10_linear" x1="33.0678" y1="78.9694" x2="25.3821" y2="74.6977" gradientUnits="userSpaceOnUse">
<stop stop-color="#776AC4"/>
<stop offset="1" stop-color="#21B576"/>
</linearGradient>
<linearGradient id="paint11_linear" x1="23.2777" y1="67.407" x2="16.0716" y2="62.6915" gradientUnits="userSpaceOnUse">
<stop stop-color="#776AC4"/>
<stop offset="1" stop-color="#21B576"/>
</linearGradient>
<linearGradient id="paint12_linear" x1="23.4702" y1="81.068" x2="16.796" y2="76.0493" gradientUnits="userSpaceOnUse">
<stop stop-color="#776AC4"/>
<stop offset="1" stop-color="#21B576"/>
</linearGradient>
</defs>
</svg>
