<svg width="95" height="90" viewBox="0 0 95 90" fill="none" xmlns="http://www.w3.org/2000/svg">
<path d="M80.4869 25.5694C79.6548 11.3589 67.9405 0 53.8168 0C45.2432 0 36.9411 4.20473 31.7968 11.0653C31.6784 11.0037 31.5521 10.9611 31.4321 10.9027C31.1227 10.7527 30.81 10.6105 30.4895 10.4826C30.3032 10.4084 30.1137 10.3421 29.9242 10.2758C29.6132 10.1668 29.2974 10.0705 28.9768 9.98368C28.7874 9.93315 28.5995 9.88102 28.4084 9.83681C28.0611 9.75786 27.7074 9.69791 27.3505 9.6458C27.1847 9.62054 27.0205 9.58891 26.8532 9.56996C26.3305 9.50996 25.8016 9.47368 25.2632 9.47368C17.4284 9.47368 11.0526 15.8479 11.0526 23.6842C11.0526 23.8879 11.0653 24.0868 11.0779 24.2858C4.51106 27.8652 0 35.3669 0 42.8748C0 54.0585 9.0979 63.1579 20.2816 63.1579H28.4211C29.2926 63.1579 30 62.4521 30 61.5789C30 60.7058 29.2926 60 28.4211 60H20.2816C10.8395 60 3.15789 52.3185 3.15789 42.8748C3.15789 36.3159 7.42896 29.5074 13.3137 26.6858L14.2105 26.2579V25.2632C14.2105 25.0689 14.2232 24.87 14.2342 24.6711L14.2484 24.3979L14.2295 24.0789C14.22 23.9479 14.2105 23.8168 14.2105 23.6842C14.2105 17.5911 19.1684 12.6316 25.2632 12.6316C25.7511 12.6316 26.2326 12.6742 26.7111 12.7374C26.8342 12.7532 26.9574 12.7737 27.0805 12.7943C27.5021 12.8637 27.9174 12.9552 28.3263 13.0721C28.3816 13.0879 28.4384 13.099 28.4937 13.1148C28.9437 13.2522 29.3826 13.4274 29.8121 13.6216C29.9226 13.6721 30.0316 13.7258 30.1405 13.7795C30.5211 13.9674 30.8937 14.1742 31.2537 14.4079C34.2947 16.38 36.3158 19.7984 36.3158 23.6842C36.3158 24.5574 37.0232 25.2632 37.8947 25.2632C38.7663 25.2632 39.4737 24.5574 39.4737 23.6842C39.4737 19.3358 37.5063 15.4437 34.4211 12.8353C38.9463 6.91426 46.4021 3.15789 53.8168 3.15789C66.0442 3.15789 76.2016 12.8448 77.261 25.0848C75.6474 24.9711 73.23 24.9127 70.8142 25.2821C69.9521 25.4132 69.36 26.2184 69.4911 27.0805C69.6095 27.8621 70.2821 28.4226 71.0495 28.4226C71.1284 28.4226 71.209 28.4163 71.2895 28.4037C74.8011 27.8732 78.4626 28.3705 78.6853 28.4005C86.0368 29.7979 91.579 36.5701 91.579 44.1664C91.579 52.8964 84.4753 60 75.7453 60H69.4737C68.6021 60 67.8947 60.7058 67.8947 61.5789C67.8947 62.4521 68.6021 63.1579 69.4737 63.1579H75.7453C86.2168 63.1579 94.7369 54.638 94.7369 44.1664C94.7369 35.4995 88.6942 27.7263 80.4869 25.5694Z" fill="url(#paint0_linear)"/>
<path d="M62.2864 72.6854C64.7985 69.6728 66.3158 65.8011 66.3158 61.579C66.3158 52.0027 58.5237 44.2106 48.9474 44.2106C39.3711 44.2106 31.579 52.0027 31.579 61.579C31.579 71.1553 39.3711 78.9474 48.9474 78.9474C53.1679 78.9474 57.0395 77.4316 60.0537 74.9179L74.6732 89.5375C74.9811 89.8454 75.3853 90 75.7895 90C76.1937 90 76.598 89.8454 76.9058 89.5375C77.5232 88.9201 77.5232 87.9221 76.9058 87.3047L62.2864 72.6854ZM48.9474 75.7895C41.1127 75.7895 34.7369 69.4153 34.7369 61.579C34.7369 53.7427 41.1127 47.3685 48.9474 47.3685C56.7821 47.3685 63.1579 53.7427 63.1579 61.579C63.1579 69.4153 56.7821 75.7895 48.9474 75.7895Z" fill="url(#paint1_linear)"/>
<defs>
<linearGradient id="paint0_linear" x1="108.835" y1="55.4511" x2="1.81948" y2="-9.33383" gradientUnits="userSpaceOnUse">
<stop stop-color="#776AC4"/>
<stop offset="1" stop-color="#21B576"/>
</linearGradient>
<linearGradient id="paint1_linear" x1="84.1828" y1="84.4126" x2="23.4024" y2="59.8822" gradientUnits="userSpaceOnUse">
<stop stop-color="#776AC4"/>
<stop offset="1" stop-color="#21B576"/>
</linearGradient>
</defs>
</svg>
