<svg width="80" height="80" viewBox="0 0 80 80" fill="none" xmlns="http://www.w3.org/2000/svg">
<mask id="path-1-inside-1" fill="white">
<path fill-rule="evenodd" clip-rule="evenodd" d="M75 3H5C3.89543 3 3 3.89543 3 5V75C3 76.1046 3.89543 77 5 77H75C76.1046 77 77 76.1046 77 75V5C77 3.89543 76.1046 3 75 3ZM5 0C2.23858 0 0 2.23858 0 5V75C0 77.7614 2.23858 80 5 80H75C77.7614 80 80 77.7614 80 75V5C80 2.23858 77.7614 0 75 0H5Z"/>
</mask>
<path fill-rule="evenodd" clip-rule="evenodd" d="M75 3H5C3.89543 3 3 3.89543 3 5V75C3 76.1046 3.89543 77 5 77H75C76.1046 77 77 76.1046 77 75V5C77 3.89543 76.1046 3 75 3ZM5 0C2.23858 0 0 2.23858 0 5V75C0 77.7614 2.23858 80 5 80H75C77.7614 80 80 77.7614 80 75V5C80 2.23858 77.7614 0 75 0H5Z" fill="url(#paint0_linear)"/>
<path d="M5 6H75V0H5V6ZM6 5C6 5.55228 5.55228 6 5 6V0C2.23858 0 0 2.23858 0 5H6ZM6 75V5H0V75H6ZM5 74C5.55229 74 6 74.4477 6 75H0C0 77.7614 2.23858 80 5 80V74ZM75 74H5V80H75V74ZM74 75C74 74.4477 74.4477 74 75 74V80C77.7614 80 80 77.7614 80 75H74ZM74 5V75H80V5H74ZM75 6C74.4477 6 74 5.55229 74 5H80C80 2.23858 77.7614 0 75 0V6ZM3 5C3 3.89543 3.89543 3 5 3V-3C0.581722 -3 -3 0.581722 -3 5H3ZM3 75V5H-3V75H3ZM5 77C3.89543 77 3 76.1046 3 75H-3C-3 79.4183 0.581721 83 5 83V77ZM75 77H5V83H75V77ZM77 75C77 76.1046 76.1046 77 75 77V83C79.4183 83 83 79.4183 83 75H77ZM77 5V75H83V5H77ZM75 3C76.1046 3 77 3.89543 77 5H83C83 0.581721 79.4183 -3 75 -3V3ZM5 3H75V-3H5V3Z" fill="url(#paint1_linear)" mask="url(#path-1-inside-1)"/>
<path fill-rule="evenodd" clip-rule="evenodd" d="M52.4524 51.1349C53.1933 51.8757 54.3941 51.8757 55.1351 51.1349C55.8758 50.3942 55.8758 49.1931 55.1351 48.4524C54.3941 47.7116 53.1933 47.7116 52.4524 48.4524C51.7117 49.1931 51.7117 50.3942 52.4524 51.1349ZM51.1112 52.4762C52.5927 53.9577 54.9947 53.9577 56.4762 52.4762C57.9579 50.9946 57.9579 48.5926 56.4762 47.1111C54.9947 45.6296 52.5927 45.6296 51.1112 47.1111C49.6296 48.5926 49.6296 50.9946 51.1112 52.4762ZM65.8649 64.5476C66.6059 65.2884 67.8067 65.2884 68.5476 64.5476C69.2883 63.8069 69.2883 62.6058 68.5476 61.8651C67.8067 61.1243 66.6059 61.1243 65.8649 61.8651C65.1242 62.6058 65.1242 63.8069 65.8649 64.5476ZM64.5238 65.8889C66.0053 67.3704 68.4073 67.3704 69.8888 65.8889C71.3704 64.4073 71.3704 62.0053 69.8888 60.5238C68.4073 59.0423 66.0053 59.0423 64.5238 60.5238C63.0421 62.0053 63.0421 64.4073 64.5238 65.8889ZM69.889 48.4524L68.5476 47.1112L51.7818 63.877L53.1232 65.2182L69.889 48.4524Z" fill="url(#paint2_linear)"/>
<path d="M45 44.7868C45 52.0613 43.6112 57.588 40.8335 61.367C38.0559 65.1223 33.9631 67 28.5553 67C23.2458 67 19.1777 65.1578 16.3508 61.4733C13.524 57.7652 12.0737 52.3801 12 45.3182V36.0715C12 28.8206 13.4011 23.3293 16.2034 19.5976C19.0056 15.8659 23.0983 14 28.4816 14C33.7911 14 37.8469 15.8068 40.6492 19.4205C43.4514 23.0105 44.9017 28.3128 45 35.3275V44.7868ZM40.5754 35.5401C40.5754 29.6355 39.5676 25.1716 37.552 22.1484C35.5609 19.1252 32.5374 17.6136 28.4816 17.6136C24.4994 17.6136 21.5006 19.0898 19.4849 22.0421C17.4693 24.9944 16.4369 29.3521 16.3877 35.115V45.2473C16.3877 51.1283 17.4201 55.6277 19.4849 58.7453C21.5743 61.863 24.5978 63.4218 28.5553 63.4218C32.4883 63.4218 35.4626 61.8984 37.4782 58.8516C39.5184 55.8048 40.5508 51.3409 40.5754 45.4599V35.5401Z" fill="url(#paint3_linear)"/>
<defs>
<linearGradient id="paint0_linear" x1="91.9048" y1="70.2381" x2="-14.2857" y2="27.381" gradientUnits="userSpaceOnUse">
<stop stop-color="#776AC4"/>
<stop offset="1" stop-color="#21B576"/>
</linearGradient>
<linearGradient id="paint1_linear" x1="91.9048" y1="70.2381" x2="-14.2857" y2="27.381" gradientUnits="userSpaceOnUse">
<stop stop-color="#776AC4"/>
<stop offset="1" stop-color="#21B576"/>
</linearGradient>
<linearGradient id="paint2_linear" x1="74.125" y1="64.4375" x2="46.25" y2="53.1875" gradientUnits="userSpaceOnUse">
<stop stop-color="#776AC4"/>
<stop offset="1" stop-color="#21B576"/>
</linearGradient>
<linearGradient id="paint3_linear" x1="49.9107" y1="60.5327" x2="1.99784" y2="48.4927" gradientUnits="userSpaceOnUse">
<stop stop-color="#776AC4"/>
<stop offset="1" stop-color="#21B576"/>
</linearGradient>
</defs>
</svg>
