<svg width="71" height="90" viewBox="0 0 71 90" fill="none" xmlns="http://www.w3.org/2000/svg">
<path d="M48.621 0H0V90H70.5V21.8791L48.621 0ZM49.5 5.12091L65.379 21H49.5V5.12091ZM3 87V3H46.5V24H67.5V87H3Z" fill="url(#paint0_linear)"/>
<path d="M15 25.5H28.5C29.3295 25.5 30 24.8295 30 24C30 23.1705 29.3295 22.5 28.5 22.5H15C14.1705 22.5 13.5 23.1705 13.5 24C13.5 24.8295 14.1705 25.5 15 25.5Z" fill="url(#paint1_linear)"/>
<path d="M15 37.5H22.5C23.3295 37.5 24 36.8295 24 36C24 35.1705 23.3295 34.5 22.5 34.5H15C14.1705 34.5 13.5 35.1705 13.5 36C13.5 36.8295 14.1705 37.5 15 37.5Z" fill="url(#paint2_linear)"/>
<path d="M37.5 37.5H48C48.8295 37.5 49.5 36.8295 49.5 36C49.5 35.1705 48.8295 34.5 48 34.5H37.5C36.6705 34.5 36 35.1705 36 36C36 36.8295 36.6705 37.5 37.5 37.5Z" fill="url(#paint3_linear)"/>
<path d="M28.935 34.9502C28.65 35.2202 28.5 35.6086 28.5 36.0001C28.5 36.3901 28.65 36.78 28.935 37.065C29.2185 37.335 29.61 37.5001 30 37.5001C30.39 37.5001 30.78 37.3485 31.065 37.05C31.335 36.7785 31.5 36.3901 31.5 36.0001C31.5 35.6086 31.335 35.2186 31.065 34.9351C30.495 34.3801 29.49 34.3802 28.935 34.9502Z" fill="url(#paint4_linear)"/>
<path d="M55.5 37.5C55.89 37.5 56.28 37.3349 56.565 37.0649C56.835 36.7799 57 36.39 57 36C57 35.6085 56.835 35.2185 56.565 34.935C55.995 34.38 55.005 34.38 54.435 34.935C54.1635 35.2185 54 35.6085 54 36C54 36.39 54.1635 36.7799 54.435 37.0649C54.7185 37.3349 55.11 37.5 55.5 37.5Z" fill="url(#paint5_linear)"/>
<path d="M33 46.5H22.5C21.6705 46.5 21 47.1705 21 48C21 48.8295 21.6705 49.5 22.5 49.5H33C33.8295 49.5 34.5 48.8295 34.5 48C34.5 47.1705 33.8295 46.5 33 46.5Z" fill="url(#paint6_linear)"/>
<path d="M15 49.5C15.39 49.5 15.78 49.3349 16.065 49.0649C16.3485 48.7799 16.5 48.39 16.5 48C16.5 47.6085 16.3485 47.2185 16.065 46.935C15.495 46.38 14.505 46.38 13.935 46.935C13.65 47.2185 13.5 47.5935 13.5 48C13.5 48.39 13.6635 48.7799 13.935 49.0649C14.2185 49.3349 14.61 49.5 15 49.5Z" fill="url(#paint7_linear)"/>
<path d="M19.7175 60.249C16.4325 61.959 15.327 65.2305 14.9235 68.622C14.3025 68.1015 13.6815 67.5825 13.0605 67.062C11.5905 65.8305 9.45755 67.941 10.9396 69.1845C12.3421 70.359 13.746 71.535 15.1485 72.711C16.1355 73.5375 17.6641 73.0154 17.7091 71.6504C17.8186 68.4014 17.9715 64.5375 21.231 62.841C22.944 61.9485 21.429 59.358 19.7175 60.249Z" fill="url(#paint8_linear)"/>
<path d="M29.6925 66.2325C27.615 66.714 25.251 69.3569 23.7885 66.3914C22.935 64.6604 20.346 66.1785 21.198 67.905C21.9735 69.4785 23.448 70.581 25.2015 70.803C26.0925 70.9155 26.898 70.7894 27.7335 70.4639C28.347 70.2254 30.639 68.502 31.134 69.3885C32.076 71.0745 34.668 69.5624 33.7245 67.8749C32.919 66.4319 31.2885 65.862 29.6925 66.2325Z" fill="url(#paint9_linear)"/>
<path d="M60.3675 51.7694C60.018 51.6449 59.8635 51.381 59.802 51.234C59.742 51.087 59.6625 50.79 59.823 50.454C60.5505 48.921 60.246 47.1555 59.046 45.954C57.8445 44.7555 56.0775 44.4496 54.5475 45.1771C54.2085 45.3376 53.9115 45.2579 53.766 45.1979C53.6175 45.1364 53.355 44.982 53.2305 44.6325C52.662 43.032 51.198 42 49.5 42C47.802 42 46.338 43.032 45.7695 44.6325C45.645 44.982 45.381 45.1364 45.234 45.1979C45.0885 45.2579 44.79 45.3391 44.454 45.1771C42.9225 44.4526 41.157 44.754 39.954 45.954C38.754 47.1555 38.4495 48.921 39.177 50.4525C39.336 50.79 39.258 51.087 39.198 51.234C39.1365 51.3825 38.982 51.6449 38.6325 51.7694C37.032 52.3379 36 53.802 36 55.5C36 57.198 37.032 58.6621 38.6325 59.2306C38.982 59.3551 39.1365 59.619 39.198 59.766C39.258 59.913 39.3375 60.21 39.177 60.546C38.4495 62.079 38.754 63.8445 39.954 65.046C40.5345 65.625 41.247 65.9911 42 66.1381V84.6209L49.5 77.1209L57 84.6209V66.1364C57.753 65.9909 58.467 65.6265 59.046 65.046C60.246 63.8445 60.5505 62.079 59.823 60.5475C59.664 60.21 59.742 59.913 59.802 59.766C59.8635 59.6175 60.018 59.3551 60.3675 59.2306C61.968 58.6621 63 57.198 63 55.5C63 53.802 61.968 52.3379 60.3675 51.7694ZM49.5 72.8791L45 77.3791V65.742C45.0135 65.7435 45.027 65.745 45.039 65.748C45.114 65.763 45.186 65.7811 45.234 65.8021C45.3075 65.8336 45.411 65.8875 45.51 65.976C45.6105 66.066 45.708 66.192 45.7695 66.3675C46.338 67.968 47.802 69 49.5 69C51.198 69 52.662 67.968 53.2305 66.3675C53.292 66.192 53.3895 66.066 53.49 65.976C53.5905 65.886 53.6925 65.8321 53.766 65.8021C53.814 65.7826 53.8845 65.763 53.9595 65.748C53.9715 65.7465 53.985 65.7435 53.9985 65.742V77.3774L49.5 72.8791ZM59.3625 56.4045C58.3095 56.778 57.459 57.585 57.0315 58.6185C56.6025 59.652 56.631 60.825 57.1125 61.8375C57.375 62.388 57.069 62.7826 56.9235 62.9266C56.805 63.0481 56.502 63.2625 56.082 63.1815L55.752 63.078C55.6155 63.0165 55.4715 62.9834 55.3305 62.9399C55.2255 62.9069 55.1235 62.862 55.017 62.8365C54.87 62.8035 54.7185 62.7946 54.5685 62.7781C54.447 62.7646 54.3285 62.739 54.207 62.736C54.0615 62.733 53.9175 62.7569 53.7735 62.7689C53.649 62.7809 53.523 62.7781 53.3985 62.8021C53.133 62.8516 52.872 62.928 52.6185 63.033C52.6185 63.033 52.617 63.0329 52.6155 63.0344C52.5495 63.0614 52.494 63.1049 52.4295 63.1349C52.2435 63.2249 52.056 63.3135 51.8865 63.4305C51.684 63.57 51.4995 63.7349 51.327 63.9089C51.3075 63.9284 51.282 63.9434 51.2625 63.9644C50.8845 64.3619 50.589 64.839 50.4015 65.3655C50.2005 65.9385 49.704 66 49.5 66C49.296 66 48.7995 65.9384 48.5955 65.3624C48.408 64.8344 48.1125 64.359 47.7345 63.9615C47.7195 63.945 47.7 63.9346 47.6835 63.9181C47.5065 63.7381 47.3175 63.5716 47.109 63.4276C46.947 63.3151 46.7655 63.2309 46.587 63.1439C46.5165 63.1094 46.4535 63.0615 46.38 63.0315C46.3785 63.0315 46.3785 63.03 46.3785 63.03C46.347 63.0165 46.314 63.0135 46.2825 63.0015C46.0635 62.9175 45.8415 62.847 45.615 62.8035C45.432 62.7675 45.2505 62.76 45.0675 62.7495C45 62.7465 44.9325 62.7299 44.865 62.7299C44.8605 62.7299 44.8575 62.7316 44.853 62.7316C44.292 62.7301 43.7475 62.8394 43.2825 63.0659L42.942 63.1725C42.5115 63.27 42.198 63.048 42.075 62.9235C41.9295 62.7795 41.6235 62.3866 41.886 61.8331C42.366 60.8221 42.396 59.6505 41.967 58.6155C41.5395 57.5835 40.689 56.7749 39.636 56.4014C39.0615 56.2004 39 55.704 39 55.5C39 55.296 39.0615 54.7995 39.6375 54.5955C40.6905 54.222 41.541 53.415 41.9685 52.3815C42.3975 51.348 42.369 50.175 41.8875 49.1625C41.625 48.612 41.931 48.2174 42.0765 48.0734C42.2205 47.9279 42.612 47.625 43.167 47.8845C44.1765 48.3645 45.3495 48.3976 46.3845 47.9656C47.4165 47.5381 48.225 46.6875 48.5985 45.6345C48.7995 45.0615 49.296 45 49.5 45C49.704 45 50.2005 45.0616 50.4045 45.6376C50.7795 46.6906 51.585 47.541 52.6185 47.9685C53.6505 48.4005 54.825 48.3691 55.8375 47.8876C56.3865 47.6221 56.784 47.931 56.9265 48.0765C57.072 48.2205 57.378 48.6134 57.1155 49.1669C56.6355 50.1779 56.6055 51.3495 57.0345 52.3845C57.462 53.4165 58.3125 54.2251 59.3655 54.5986C59.9385 54.7996 60 55.296 60 55.5C60 55.704 59.9385 56.2005 59.3625 56.4045Z" fill="url(#paint10_linear)"/>
<defs>
<linearGradient id="paint0_linear" x1="80.9911" y1="79.0179" x2="-17.9437" y2="47.7403" gradientUnits="userSpaceOnUse">
<stop stop-color="#776AC4"/>
<stop offset="1" stop-color="#21B576"/>
</linearGradient>
<linearGradient id="paint1_linear" x1="32.4554" y1="25.1339" x2="28.1584" y2="15.5957" gradientUnits="userSpaceOnUse">
<stop stop-color="#776AC4"/>
<stop offset="1" stop-color="#21B576"/>
</linearGradient>
<linearGradient id="paint2_linear" x1="25.5625" y1="37.1339" x2="20.1515" y2="29.4906" gradientUnits="userSpaceOnUse">
<stop stop-color="#776AC4"/>
<stop offset="1" stop-color="#21B576"/>
</linearGradient>
<linearGradient id="paint3_linear" x1="51.5089" y1="37.1339" x2="46.6609" y2="28.3293" gradientUnits="userSpaceOnUse">
<stop stop-color="#776AC4"/>
<stop offset="1" stop-color="#21B576"/>
</linearGradient>
<linearGradient id="paint4_linear" x1="31.9464" y1="37.1365" x2="27.972" y2="35.5214" gradientUnits="userSpaceOnUse">
<stop stop-color="#776AC4"/>
<stop offset="1" stop-color="#21B576"/>
</linearGradient>
<linearGradient id="paint5_linear" x1="57.4464" y1="37.1362" x2="53.4713" y2="35.5218" gradientUnits="userSpaceOnUse">
<stop stop-color="#776AC4"/>
<stop offset="1" stop-color="#21B576"/>
</linearGradient>
<linearGradient id="paint6_linear" x1="36.5089" y1="49.1339" x2="31.6609" y2="40.3293" gradientUnits="userSpaceOnUse">
<stop stop-color="#776AC4"/>
<stop offset="1" stop-color="#21B576"/>
</linearGradient>
<linearGradient id="paint7_linear" x1="16.9464" y1="49.1362" x2="12.9713" y2="47.5218" gradientUnits="userSpaceOnUse">
<stop stop-color="#776AC4"/>
<stop offset="1" stop-color="#21B576"/>
</linearGradient>
<linearGradient id="paint8_linear" x1="23.7019" y1="71.5155" x2="7.89757" y2="65.8686" gradientUnits="userSpaceOnUse">
<stop stop-color="#776AC4"/>
<stop offset="1" stop-color="#21B576"/>
</linearGradient>
<linearGradient id="paint9_linear" x1="35.8475" y1="70.2069" x2="25.8735" y2="60.251" gradientUnits="userSpaceOnUse">
<stop stop-color="#776AC4"/>
<stop offset="1" stop-color="#21B576"/>
</linearGradient>
<linearGradient id="paint10_linear" x1="67.0179" y1="79.4201" x2="27.8981" y2="69.4184" gradientUnits="userSpaceOnUse">
<stop stop-color="#776AC4"/>
<stop offset="1" stop-color="#21B576"/>
</linearGradient>
</defs>
</svg>
