<svg width="104" height="90" viewBox="0 0 104 90" fill="none" xmlns="http://www.w3.org/2000/svg">
<path d="M90.5019 69.7326C90.1887 70.0597 90 70.5115 90 70.9615C90 71.4115 90.1731 71.8615 90.5019 72.1903C90.829 72.5018 91.2808 72.6922 91.7308 72.6922C92.1808 72.6922 92.6308 72.5018 92.9596 72.1903C93.2712 71.8615 93.4615 71.4115 93.4615 70.9615C93.4615 70.5115 93.2712 70.0597 92.9596 69.7326C92.3192 69.1095 91.1596 69.0922 90.5019 69.7326Z" fill="url(#paint0_linear)"/>
<path d="M40.912 66.2245L34.6154 63.0088V62.339C37.4331 60.8003 39.4148 58.2647 40.5208 54.7841C42.1979 53.8963 43.2693 52.1655 43.2693 50.2236V48.4928C43.2693 46.8884 42.5233 45.4016 41.2771 44.4255C40.1971 37.8832 35.6314 34.567 27.6923 34.567C27.3168 34.567 26.9498 34.5826 26.5916 34.6103C25.0945 34.7263 22.9068 34.6051 21.0116 33.3278C20.302 32.8501 19.7671 32.3863 19.4244 31.9501C18.8429 31.2093 17.865 30.9515 16.9996 31.3115C16.1325 31.668 15.622 32.5368 15.731 33.4715C15.8037 34.1153 15.9127 34.8699 16.0771 35.6955C16.4112 37.383 16.4112 37.383 15.9421 38.392C15.7656 38.7745 15.5475 39.2401 15.2914 39.8684C14.7185 41.2703 14.3118 42.8055 14.0781 44.448C12.8493 45.4241 12.1154 46.904 12.1154 48.4928V50.2236C12.1154 52.1655 13.1868 53.8963 14.8639 54.7859C15.9698 58.2682 17.9516 60.8038 20.7693 62.3407V62.9915L14.2443 66.2055C11.8627 67.5053 10.3846 69.9976 10.3846 72.7115V75.003C10.3846 76.3928 10.3846 79.6467 27.6923 79.6467C45 79.6467 45 76.3928 45 75.003V72.8499C45 70.0288 43.4337 67.4897 40.912 66.2245ZM41.5385 74.6118C40.4602 75.2678 36.0675 76.1834 27.6923 76.1834C19.3171 76.1834 14.9245 75.2678 13.8462 74.6118V72.7097C13.8462 71.2645 14.6354 69.9353 15.8383 69.2776L22.5156 65.9891C23.5575 65.4803 24.2308 64.402 24.2308 63.2407V60.1184L23.1854 59.6666C20.5598 58.5382 18.8533 56.3799 17.9671 53.0655L17.7196 52.1447L16.8093 51.8609C16.0841 51.6359 15.577 50.9609 15.577 50.2236V48.4928C15.577 47.8645 15.9352 47.283 16.5133 46.9749L17.325 46.5422L17.4202 45.6284C17.5916 44.0032 17.9533 42.5061 18.4968 41.1803C18.727 40.6178 18.9225 40.1972 19.0818 39.8528C19.6685 38.5911 19.8814 37.9403 19.7343 36.6059C21.7679 37.769 24.2118 38.2657 26.8685 38.0632C27.1368 38.0407 27.4119 38.0286 27.6941 38.0286C34.1741 38.0286 37.3379 40.3755 37.9558 45.6422L38.0631 46.5474L38.8696 46.9715C39.4477 47.2778 39.8077 47.8593 39.8077 48.4928V50.2236C39.8077 50.9626 39.3006 51.6359 38.5754 51.8609L37.665 52.1447L37.4175 53.0655C36.5314 56.3799 34.8248 58.5382 32.1993 59.6666L31.1539 60.1184V63.2545C31.1539 64.4072 31.7925 65.4526 32.8223 65.9805L39.3439 69.3105L39.356 69.3174C40.7025 69.9907 41.5385 71.3459 41.5385 72.8499V74.6118Z" fill="url(#paint1_linear)"/>
<path d="M53.6539 43.3004H70.9616C71.9187 43.3004 72.6923 42.5268 72.6923 41.5696C72.6923 40.6125 71.9187 39.8389 70.9616 39.8389H53.6539C52.6967 39.8389 51.9231 40.6125 51.9231 41.5696C51.9231 42.5268 52.6967 43.3004 53.6539 43.3004Z" fill="url(#paint2_linear)"/>
<path d="M55.3846 69.262H53.6539C52.6967 69.262 51.9231 70.0356 51.9231 70.9927C51.9231 71.9498 52.6967 72.7235 53.6539 72.7235H55.3846C56.3417 72.7235 57.1154 71.9498 57.1154 70.9927C57.1154 70.0356 56.3417 69.262 55.3846 69.262Z" fill="url(#paint3_linear)"/>
<path d="M65.7692 69.262H62.3077C61.3506 69.262 60.5769 70.0356 60.5769 70.9927C60.5769 71.9498 61.3506 72.7235 62.3077 72.7235H65.7692C66.7263 72.7235 67.5 71.9498 67.5 70.9927C67.5 70.0356 66.7263 69.262 65.7692 69.262Z" fill="url(#paint4_linear)"/>
<path d="M74.4231 69.262H72.6923C71.7352 69.262 70.9615 70.0356 70.9615 70.9927C70.9615 71.9498 71.7352 72.7235 72.6923 72.7235H74.4231C75.3802 72.7235 76.1539 71.9498 76.1539 70.9927C76.1539 70.0356 75.3802 69.262 74.4231 69.262Z" fill="url(#paint5_linear)"/>
<path d="M84.8077 69.262H81.3461C80.389 69.262 79.6154 70.0356 79.6154 70.9927C79.6154 71.9498 80.389 72.7235 81.3461 72.7235H84.8077C85.7648 72.7235 86.5384 71.9498 86.5384 70.9927C86.5384 70.0356 85.7648 69.262 84.8077 69.262Z" fill="url(#paint6_linear)"/>
<path d="M91.7308 50.2234H53.6539C52.6967 50.2234 51.9231 50.997 51.9231 51.9542C51.9231 52.9113 52.6967 53.6849 53.6539 53.6849H91.7308C92.6879 53.6849 93.4616 52.9113 93.4616 51.9542C93.4616 50.997 92.6879 50.2234 91.7308 50.2234Z" fill="url(#paint7_linear)"/>
<path d="M91.7308 60.6082H53.6539C52.6967 60.6082 51.9231 61.3818 51.9231 62.3389C51.9231 63.296 52.6967 64.0697 53.6539 64.0697H91.7308C92.6879 64.0697 93.4616 63.296 93.4616 62.3389C93.4616 61.3818 92.6879 60.6082 91.7308 60.6082Z" fill="url(#paint8_linear)"/>
<path d="M95.7496 17.3077H64.0385V4.00327C64.0385 1.79481 62.2437 0 60.0352 0H43.8092C41.6025 0 39.8077 1.79481 39.8077 4.00327V17.3077H8.09654C3.63288 17.3077 0 20.9406 0 25.4042V81.9052C0 86.3671 3.63288 90 8.09654 90H95.7514C100.213 90 103.846 86.3671 103.846 81.9035V25.4042C103.846 20.9406 100.213 17.3077 95.7496 17.3077ZM43.2692 4.00327C43.2692 3.70558 43.5133 3.46154 43.8092 3.46154H60.0352C60.3329 3.46154 60.5769 3.70558 60.5769 4.00327V17.3077V27.1523C60.5769 27.4483 60.3329 27.6923 60.0352 27.6923H43.8092C43.5133 27.6923 43.2692 27.4483 43.2692 27.1523V17.3077V4.00327ZM100.385 81.9035C100.385 84.4598 98.306 86.5385 95.7496 86.5385H8.09654C5.54019 86.5385 3.46154 84.4598 3.46154 81.9035V25.4042C3.46154 22.8479 5.54019 20.7692 8.09654 20.7692H39.8077V27.1523C39.8077 29.359 41.6025 31.1538 43.8092 31.1538H60.0352C62.2437 31.1538 64.0385 29.359 64.0385 27.1523V20.7692H95.7496C98.306 20.7692 100.385 22.8479 100.385 25.4042V81.9035Z" fill="url(#paint9_linear)"/>
<path d="M51.9231 19.0385C55.7412 19.0385 58.8462 15.9335 58.8462 12.1155C58.8462 8.29738 55.7412 5.19238 51.9231 5.19238C48.105 5.19238 45 8.29738 45 12.1155C45 15.9335 48.105 19.0385 51.9231 19.0385ZM51.9231 8.65392C53.8321 8.65392 55.3846 10.2064 55.3846 12.1155C55.3846 14.0245 53.8321 15.577 51.9231 15.577C50.014 15.577 48.4615 14.0245 48.4615 12.1155C48.4615 10.2064 50.014 8.65392 51.9231 8.65392Z" fill="url(#paint10_linear)"/>
<defs>
<linearGradient id="paint0_linear" x1="93.9766" y1="72.2733" x2="89.3924" y2="70.408" gradientUnits="userSpaceOnUse">
<stop stop-color="#776AC4"/>
<stop offset="1" stop-color="#21B576"/>
</linearGradient>
<linearGradient id="paint1_linear" x1="50.1511" y1="73.729" x2="0.813517" y2="59.5162" gradientUnits="userSpaceOnUse">
<stop stop-color="#776AC4"/>
<stop offset="1" stop-color="#21B576"/>
</linearGradient>
<linearGradient id="paint2_linear" x1="75.783" y1="42.878" x2="71.1122" y2="31.5676" gradientUnits="userSpaceOnUse">
<stop stop-color="#776AC4"/>
<stop offset="1" stop-color="#21B576"/>
</linearGradient>
<linearGradient id="paint3_linear" x1="57.8881" y1="72.3011" x2="52.0228" y2="68.7504" gradientUnits="userSpaceOnUse">
<stop stop-color="#776AC4"/>
<stop offset="1" stop-color="#21B576"/>
</linearGradient>
<linearGradient id="paint4_linear" x1="68.5302" y1="72.3011" x2="62.0596" y2="67.0782" gradientUnits="userSpaceOnUse">
<stop stop-color="#776AC4"/>
<stop offset="1" stop-color="#21B576"/>
</linearGradient>
<linearGradient id="paint5_linear" x1="76.9265" y1="72.3011" x2="71.0613" y2="68.7504" gradientUnits="userSpaceOnUse">
<stop stop-color="#776AC4"/>
<stop offset="1" stop-color="#21B576"/>
</linearGradient>
<linearGradient id="paint6_linear" x1="87.5687" y1="72.3011" x2="81.0981" y2="67.0782" gradientUnits="userSpaceOnUse">
<stop stop-color="#776AC4"/>
<stop offset="1" stop-color="#21B576"/>
</linearGradient>
<linearGradient id="paint7_linear" x1="99.6429" y1="53.2625" x2="97.021" y2="40.5647" gradientUnits="userSpaceOnUse">
<stop stop-color="#776AC4"/>
<stop offset="1" stop-color="#21B576"/>
</linearGradient>
<linearGradient id="paint8_linear" x1="99.6429" y1="63.6473" x2="97.021" y2="50.9494" gradientUnits="userSpaceOnUse">
<stop stop-color="#776AC4"/>
<stop offset="1" stop-color="#21B576"/>
</linearGradient>
<linearGradient id="paint9_linear" x1="119.299" y1="79.0179" x2="-12.43" y2="17.6744" gradientUnits="userSpaceOnUse">
<stop stop-color="#776AC4"/>
<stop offset="1" stop-color="#21B576"/>
</linearGradient>
<linearGradient id="paint10_linear" x1="60.9066" y1="17.349" x2="42.5275" y2="9.93139" gradientUnits="userSpaceOnUse">
<stop stop-color="#776AC4"/>
<stop offset="1" stop-color="#21B576"/>
</linearGradient>
</defs>
</svg>
