<svg width="90" height="90" viewBox="0 0 90 90" fill="none" xmlns="http://www.w3.org/2000/svg">
<path d="M90 12V0H0V12H3V72H1.5C0.672 72 0 72.6705 0 73.5C0 74.3295 0.672 75 1.5 75H3H43.5V78C43.5 78.0705 43.5315 78.132 43.5405 78.201C40.9395 78.8566 39 81.1965 39 84C39 87.309 41.691 90 45 90C48.309 90 51 87.309 51 84C51 81.1965 49.0604 78.8566 46.4594 78.201C46.4684 78.132 46.5 78.0705 46.5 78V75H87H88.5C89.328 75 90 74.3295 90 73.5C90 72.6705 89.328 72 88.5 72H87V12H90ZM48 84C48 85.6545 46.6545 87 45 87C43.3455 87 42 85.6545 42 84C42 82.3455 43.3455 81 45 81C46.6545 81 48 82.3455 48 84ZM3 3H87V9H3V3ZM84 72H6V12H84V72Z" fill="url(#paint0_linear)"/>
<path d="M12 28.5H28.5C29.328 28.5 30 27.8295 30 27C30 26.1705 29.328 25.5 28.5 25.5H12C11.172 25.5 10.5 26.1705 10.5 27C10.5 27.8295 11.172 28.5 12 28.5Z" fill="url(#paint1_linear)"/>
<path d="M12 22.5H19.5C20.328 22.5 21 21.8295 21 21C21 20.1705 20.328 19.5 19.5 19.5H12C11.172 19.5 10.5 20.1705 10.5 21C10.5 21.8295 11.172 22.5 12 22.5Z" fill="url(#paint2_linear)"/>
<path d="M12 34.5H28.5C29.328 34.5 30 33.8295 30 33C30 32.1705 29.328 31.5 28.5 31.5H12C11.172 31.5 10.5 32.1705 10.5 33C10.5 33.8295 11.172 34.5 12 34.5Z" fill="url(#paint3_linear)"/>
<path d="M22.5 48C22.5 48.708 22.6455 49.377 22.8705 50.0085L20.007 52.8704C19.377 52.6454 18.708 52.5 18 52.5C14.691 52.5 12 55.191 12 58.5C12 61.809 14.691 64.5 18 64.5C21.309 64.5 24 61.809 24 58.5C24 57.0045 23.43 55.6515 22.521 54.6L24.5985 52.5225C25.6515 53.43 27.0045 54 28.5 54C29.9955 54 31.3485 53.43 32.4 52.5225L34.4775 54.6C33.57 55.6515 33 57.0045 33 58.5C33 61.809 35.691 64.5 39 64.5C42.309 64.5 45 61.809 45 58.5C45 57.39 44.6775 56.3639 44.1495 55.4714L54.5999 45.0225C55.6514 45.93 57.0045 46.5 58.5 46.5C59.9955 46.5 61.3485 45.93 62.4 45.0225L68.9789 51.6C68.0699 52.6515 67.5 54.0045 67.5 55.5C67.5 58.809 70.191 61.5 73.5 61.5C76.809 61.5 79.5 58.809 79.5 55.5C79.5 52.191 76.809 49.5 73.5 49.5C72.792 49.5 72.123 49.6454 71.493 49.8704L64.1295 42.5085C64.3545 41.877 64.5 41.208 64.5 40.5C64.5 37.191 61.809 34.5 58.5 34.5C55.191 34.5 52.5 37.191 52.5 40.5C52.5 41.208 52.6455 41.877 52.8705 42.5085L42.0285 53.3505C41.136 52.8225 40.11 52.5 39 52.5C38.292 52.5 37.623 52.6454 36.993 52.8704L34.1295 50.0085C34.3545 49.377 34.5 48.708 34.5 48C34.5 44.691 31.809 42 28.5 42C25.191 42 22.5 44.691 22.5 48ZM18 61.5C16.3455 61.5 15 60.1545 15 58.5C15 56.8455 16.3455 55.5 18 55.5C19.6545 55.5 21 56.8455 21 58.5C21 60.1545 19.6545 61.5 18 61.5ZM76.5 55.5C76.5 57.1545 75.1545 58.5 73.5 58.5C71.8455 58.5 70.5 57.1545 70.5 55.5C70.5 53.8455 71.8455 52.5 73.5 52.5C75.1545 52.5 76.5 53.8455 76.5 55.5ZM58.5 37.5C60.1545 37.5 61.5 38.8455 61.5 40.5C61.5 42.1545 60.1545 43.5 58.5 43.5C56.8455 43.5 55.5 42.1545 55.5 40.5C55.5 38.8455 56.8455 37.5 58.5 37.5ZM42 58.5C42 60.1545 40.6545 61.5 39 61.5C37.3455 61.5 36 60.1545 36 58.5C36 56.8455 37.3455 55.5 39 55.5C40.6545 55.5 42 56.8455 42 58.5ZM31.5 48C31.5 49.6545 30.1545 51 28.5 51C26.8455 51 25.5 49.6545 25.5 48C25.5 46.3455 26.8455 45 28.5 45C30.1545 45 31.5 46.3455 31.5 48Z" fill="url(#paint4_linear)"/>
<defs>
<linearGradient id="paint0_linear" x1="103.393" y1="79.0179" x2="-16.0714" y2="30.8036" gradientUnits="userSpaceOnUse">
<stop stop-color="#776AC4"/>
<stop offset="1" stop-color="#21B576"/>
</linearGradient>
<linearGradient id="paint1_linear" x1="32.9018" y1="28.1339" x2="29.0829" y2="18.1157" gradientUnits="userSpaceOnUse">
<stop stop-color="#776AC4"/>
<stop offset="1" stop-color="#21B576"/>
</linearGradient>
<linearGradient id="paint2_linear" x1="22.5625" y1="22.1339" x2="17.1515" y2="14.4906" gradientUnits="userSpaceOnUse">
<stop stop-color="#776AC4"/>
<stop offset="1" stop-color="#21B576"/>
</linearGradient>
<linearGradient id="paint3_linear" x1="32.9018" y1="34.1339" x2="29.0829" y2="24.1157" gradientUnits="userSpaceOnUse">
<stop stop-color="#776AC4"/>
<stop offset="1" stop-color="#21B576"/>
</linearGradient>
<linearGradient id="paint4_linear" x1="89.5446" y1="60.8393" x2="32.4403" y2="8.98446" gradientUnits="userSpaceOnUse">
<stop stop-color="#776AC4"/>
<stop offset="1" stop-color="#21B576"/>
</linearGradient>
</defs>
</svg>
