<svg width="101" height="80" viewBox="0 0 101 80" fill="none" xmlns="http://www.w3.org/2000/svg">
<path d="M98.6664 27.8333L84.1664 11.8334C82.9998 10.6668 81.4998 9.99998 79.9998 9.99998H63.3332V6.49998C63.3332 2.83339 60.4999 0 56.9999 0H6.49998C2.83339 0.000195312 0 2.83339 0 6.50018V46.6667V50.0001V64.1666C0 67.3332 2.6666 70 5.83338 70H8.45115C9.24705 75.6944 14.067 80 20.0001 80C25.9333 80 30.7532 75.6944 31.5491 70H59.9999H63.3332H68.451C69.2469 75.6944 74.0668 80 80 80C85.9332 80 90.7531 75.6944 91.549 70H99.9998H100.166V31.6667C100.166 30.1667 99.6664 28.8333 98.6664 27.8333ZM95.9998 30.0001C96.4998 30.3335 96.6664 31.0001 96.6664 31.5001V36.6667H71.6664V20.0001H86.833L95.9998 30.0001ZM3.33339 35.0001H26.6667C27.6667 35.0001 28.3333 34.3335 28.3333 33.3335C28.3333 32.3335 27.6667 31.6669 26.6667 31.6669H3.33339V26.6669H20C21 26.6669 21.6665 26.0003 21.6665 25.0003C21.6665 24.0003 21 23.3337 20 23.3337H3.33339V6.50018C3.33339 4.66679 4.66679 3.33359 6.49998 3.33359H56.8333C58.6667 3.33359 59.9999 4.83358 59.9999 6.50018V10.0002V46.6667H3.33339V35.0001ZM20 76.6666C15.3334 76.6666 11.6666 73 11.6666 68.3332C11.6666 63.6666 15.3332 59.9999 20 59.9999C24.6665 59.9999 28.3333 63.6665 28.3333 68.3332C28.3333 73 24.6665 76.6666 20 76.6666ZM59.9999 66.6666H31.549C30.8027 61.327 26.5175 57.2104 21.0943 56.7182C21.0546 56.7145 21.0144 56.7126 20.9746 56.7092C20.838 56.6983 20.7017 56.687 20.5638 56.6805C20.3769 56.6715 20.189 56.6665 20 56.6665C19.8109 56.6665 19.623 56.6715 19.4361 56.6805C19.2982 56.687 19.1619 56.6981 19.0253 56.7092C18.9855 56.7126 18.9453 56.7145 18.9056 56.7182C13.4824 57.2104 9.19724 61.327 8.45096 66.6666H5.83338C4.49999 66.6666 3.33339 65.5 3.33339 64.1666V50.0001H59.9999V66.6666ZM79.9998 76.6666C75.3332 76.6666 71.6664 73 71.6664 68.3332C71.6664 63.6666 75.333 59.9999 79.9998 59.9999C84.6664 59.9999 88.3332 63.6665 88.3332 68.3332C88.3332 73 84.6664 76.6666 79.9998 76.6666ZM91.5488 66.6666C90.8025 61.327 86.5174 57.2104 81.0941 56.7182C81.0545 56.7145 81.0143 56.7126 80.9744 56.7092C80.8379 56.6983 80.7016 56.687 80.5637 56.6805C80.3768 56.6715 80.1889 56.6665 79.9998 56.6665C79.8108 56.6665 79.6229 56.6715 79.4359 56.6805C79.2981 56.687 79.1617 56.6981 79.0252 56.7092C78.9854 56.7126 78.9451 56.7145 78.9055 56.7182C73.4822 57.2104 69.1971 61.327 68.4508 66.6666H63.333V50.0001V46.6667V13.3334H79.9998C80.4998 13.3334 81.1664 13.6668 81.6664 14L84.0553 16.6666H71.1664C69.6664 16.6666 68.333 18 68.333 19.5V37.1665C68.333 38.6665 69.6664 39.9999 71.1664 39.9999H96.6664V48.3333H88.333C87.333 48.3333 86.6664 48.9999 86.6664 49.9999C86.6664 50.9999 87.333 51.6665 88.333 51.6665H96.6664V66.6664H91.5488V66.6666Z" fill="url(#paint0_linear)"/>
<path d="M20.0003 65C18.1669 65 16.6669 66.5 16.6669 68.3334C16.6669 70.1668 18.1669 71.6668 20.0003 71.6668C21.8337 71.6668 23.3337 70.1668 23.3337 68.3334C23.3337 66.5 21.8337 65 20.0003 65Z" fill="url(#paint1_linear)"/>
<path d="M79.9998 65C78.1664 65 76.6664 66.5 76.6664 68.3334C76.6664 70.1668 78.1664 71.6668 79.9998 71.6668C81.8332 71.6668 83.3332 70.1668 83.3332 68.3334C83.3332 66.5 81.8332 65 79.9998 65Z" fill="url(#paint2_linear)"/>
<defs>
<linearGradient id="paint0_linear" x1="115.072" y1="70.2381" x2="-8.09311" y2="7.99982" gradientUnits="userSpaceOnUse">
<stop stop-color="#776AC4"/>
<stop offset="1" stop-color="#21B576"/>
</linearGradient>
<linearGradient id="paint1_linear" x1="24.3257" y1="70.8533" x2="15.4764" y2="67.2818" gradientUnits="userSpaceOnUse">
<stop stop-color="#776AC4"/>
<stop offset="1" stop-color="#21B576"/>
</linearGradient>
<linearGradient id="paint2_linear" x1="84.3252" y1="70.8533" x2="75.4759" y2="67.2818" gradientUnits="userSpaceOnUse">
<stop stop-color="#776AC4"/>
<stop offset="1" stop-color="#21B576"/>
</linearGradient>
</defs>
</svg>
