<svg width="86" height="91" viewBox="0 0 86 91" fill="none" xmlns="http://www.w3.org/2000/svg">
<path d="M60.0006 73.5093C56.6916 73.5093 54.0006 76.2003 54.0006 79.5093C54.0006 82.8183 56.6916 85.5093 60.0006 85.5093C63.3096 85.5093 66.0006 82.8183 66.0006 79.5093C66.0006 76.2003 63.3096 73.5093 60.0006 73.5093ZM60.0006 82.5093C58.3461 82.5093 57.0006 81.1638 57.0006 79.5093C57.0006 77.8548 58.3461 76.5093 60.0006 76.5093C61.6551 76.5093 63.0006 77.8548 63.0006 79.5093C63.0006 81.1638 61.6551 82.5093 60.0006 82.5093Z" fill="url(#paint0_linear)"/>
<path d="M54.0006 7.50928H60.0006C60.8286 7.50928 61.5006 6.83878 61.5006 6.00928C61.5006 5.17978 60.8286 4.50928 60.0006 4.50928H54.0006C53.1726 4.50928 52.5006 5.17978 52.5006 6.00928C52.5006 6.83878 53.1726 7.50928 54.0006 7.50928Z" fill="url(#paint1_linear)"/>
<path d="M64.5006 7.50928H66.0006C66.8286 7.50928 67.5006 6.83878 67.5006 6.00928C67.5006 5.17978 66.8286 4.50928 66.0006 4.50928H64.5006C63.6726 4.50928 63.0006 5.17978 63.0006 6.00928C63.0006 6.83878 63.6726 7.50928 64.5006 7.50928Z" fill="url(#paint2_linear)"/>
<path d="M78.8931 0.00927734H41.1082C37.4647 0.00927734 34.5006 2.97482 34.5006 6.61682V20.9178C26.6196 23.9463 21.0006 31.5738 21.0006 40.5093C21.0006 45.3963 22.6926 49.8888 25.5036 53.4603L0.474588 76.9158C-0.129912 77.4828 -0.161351 78.4322 0.405649 79.0352C0.701149 79.3502 1.10012 79.5093 1.50062 79.5093C1.86812 79.5093 2.23715 79.3743 2.52665 79.1028L27.5211 55.6803C29.5161 57.5853 31.8816 59.0943 34.5006 60.1008V83.4017C34.5006 87.0452 37.4647 90.0093 41.1082 90.0093H78.8916C82.5351 90.0093 85.4992 87.0437 85.4992 83.4017V6.61682C85.5007 2.97482 82.5366 0.00927734 78.8931 0.00927734ZM41.1082 3.00928H78.8916C80.8821 3.00928 82.5006 4.62782 82.5006 6.61682V9.00928H37.5006V6.61682C37.5006 4.62782 39.1192 3.00928 41.1082 3.00928ZM24.0006 40.5093C24.0006 32.5008 29.2611 25.7043 36.5046 23.3748C36.7416 23.2983 36.9816 23.2398 37.2201 23.1738C37.4976 23.0973 37.7751 23.0208 38.0571 22.9578C38.3001 22.9023 38.5446 22.8573 38.7906 22.8123C39.1101 22.7538 39.4312 22.7043 39.7567 22.6638C39.9607 22.6383 40.1646 22.6098 40.3686 22.5918C40.9071 22.5423 41.4501 22.5093 42.0006 22.5093C51.9261 22.5093 60.0006 30.5838 60.0006 40.5093C60.0006 50.4348 51.9261 58.5093 42.0006 58.5093C41.4501 58.5093 40.9071 58.4762 40.3686 58.4267C40.1646 58.4072 39.9607 58.3802 39.7567 58.3547C39.4327 58.3142 39.1101 58.2647 38.7906 58.2062C38.5461 58.1612 38.3016 58.1149 38.0571 58.0609C37.7751 57.9979 37.4976 57.9213 37.2201 57.8448C36.9816 57.7788 36.7416 57.7202 36.5046 57.6437C29.2611 55.3142 24.0006 48.5178 24.0006 40.5093ZM39.4506 61.3383C39.5571 61.3518 39.6636 61.3757 39.7716 61.3877C40.5051 61.4657 41.2476 61.5093 42.0006 61.5093C53.5806 61.5093 63.0006 52.0893 63.0006 40.5093C63.0006 28.9293 53.5806 19.5093 42.0006 19.5093C41.2476 19.5093 40.5051 19.5528 39.7716 19.6308C39.6636 19.6428 39.5586 19.6668 39.4506 19.6803C38.8176 19.7568 38.1906 19.8557 37.5756 19.9877C37.5501 19.9937 37.5261 19.9953 37.5006 19.9998V12.0093H82.5006V69.0093H37.5006V61.0187C37.5261 61.0232 37.5501 61.0248 37.5756 61.0308C38.1906 61.1643 38.8176 61.2618 39.4506 61.3383ZM78.8931 87.0093H41.1082C39.1192 87.0093 37.5006 85.3907 37.5006 83.4017V72.0093H82.5006V83.4017C82.5006 85.3907 80.8821 87.0093 78.8931 87.0093Z" fill="url(#paint3_linear)"/>
<defs>
<linearGradient id="paint0_linear" x1="67.7863" y1="84.045" x2="51.8578" y2="77.6164" gradientUnits="userSpaceOnUse">
<stop stop-color="#776AC4"/>
<stop offset="1" stop-color="#21B576"/>
</linearGradient>
<linearGradient id="paint1_linear" x1="62.8399" y1="7.14321" x2="57.2062" y2="0.322183" gradientUnits="userSpaceOnUse">
<stop stop-color="#776AC4"/>
<stop offset="1" stop-color="#21B576"/>
</linearGradient>
<linearGradient id="paint2_linear" x1="68.1703" y1="7.14321" x2="63.087" y2="4.06592" gradientUnits="userSpaceOnUse">
<stop stop-color="#776AC4"/>
<stop offset="1" stop-color="#21B576"/>
</linearGradient>
<linearGradient id="paint3_linear" x1="98.2222" y1="79.0271" x2="-16.8393" y2="34.912" gradientUnits="userSpaceOnUse">
<stop stop-color="#776AC4"/>
<stop offset="1" stop-color="#21B576"/>
</linearGradient>
</defs>
</svg>
