<svg width="94" height="90" viewBox="0 0 94 90" fill="none" xmlns="http://www.w3.org/2000/svg">
<path d="M92.2609 54.2887C89.5407 50.4993 86.7833 50.4388 79.8797 54.0714L66.4991 62.2521C64.516 63.3073 60.4459 63.6238 56.4983 63.6905C57.1997 62.2304 56.8862 60.4878 55.561 58.5078C54.3336 56.6768 52.6624 55.2212 50.7228 54.2266C53.9379 51.6135 55.8621 47.7233 55.8621 43.4483C55.8621 35.7487 49.5978 29.4828 41.8965 29.4828C34.1953 29.4828 27.931 35.7487 27.931 43.4483C27.931 45.7464 28.5021 47.9405 29.5247 49.8973C29.5045 49.8833 29.4828 49.8709 29.4641 49.8554C23.8934 45.6549 14.5862 45.0621 10.8636 44.9985V40.3014H0V90H10.8621V85.3449H31.0345C34.2 85.3449 37.3934 85.1028 40.5248 84.628L60.6398 81.5695C61.3722 81.5602 62.114 81.4733 62.775 81.3243C64.6278 81.0637 66.3983 80.1792 67.8988 78.764L91.4183 60.4474L91.454 60.418C93.2865 58.9019 93.6403 56.2081 92.2609 54.2887ZM35.9534 52.5243C32.8671 50.504 31.0345 47.1337 31.0345 43.4483C31.0345 37.4587 35.9084 32.5862 41.8965 32.5862C47.8847 32.5862 52.7586 37.4587 52.7586 43.4483C52.7586 47.4611 50.6002 51.0657 47.0917 52.9743C46.8993 52.9371 46.7038 52.9185 46.5098 52.889C46.3159 52.8595 46.125 52.8254 45.9279 52.8036C45.4236 52.7478 44.9162 52.7137 44.4072 52.7137H38.3555C37.575 52.7152 36.7681 52.6516 35.9534 52.5243ZM7.75862 86.8966H3.10345V43.4049H7.75862V45.0512V85.3464V86.8966ZM89.491 58.0159L65.9312 76.3619L65.8117 76.4659C64.7721 77.4605 63.5726 78.0781 62.19 78.2783C61.6252 78.404 61.0619 78.4676 60.5172 78.4676L40.0578 81.5602C37.08 82.0133 34.0433 82.243 31.0345 82.243H10.8621V48.1066C14.3022 48.178 22.8197 48.7335 27.5959 52.3335C29.669 53.8976 32.1533 54.959 34.8036 55.468L34.8269 55.4819L35.1217 55.5331C35.1372 55.5362 35.1512 55.5362 35.1667 55.5393C35.6757 55.6262 36.1909 55.6961 36.7107 55.7411C36.7278 55.7426 36.7448 55.7457 36.7603 55.7473C37.2879 55.7923 37.8186 55.8187 38.354 55.8187H44.4057C45.2591 55.8187 46.1126 55.9195 46.9412 56.1181L47.0405 56.143C49.4814 56.7481 51.6026 58.1835 52.979 60.2364C53.6322 61.2093 53.8898 62.0178 53.671 62.398C53.2567 63.1149 51.3341 63.5555 49.3836 63.6409C48.749 63.63 48.1702 63.6223 47.6628 63.6223H32.5862C27.7278 63.6223 24.8276 65.9421 24.8276 69.8292C24.8276 70.6857 25.5212 71.3809 26.3793 71.3809C27.2374 71.3809 27.931 70.6857 27.931 69.8292C27.931 69.0611 27.931 66.7257 32.5862 66.7257H47.6286C47.9809 66.7474 48.6574 66.7769 49.5093 66.7459C49.7762 66.7505 50.0524 66.7552 50.3348 66.7599C57.6171 66.8949 64.4462 66.8576 68.0369 64.9459L81.4097 56.7683C87.809 53.4057 88.4529 54.3073 89.7378 56.098C90.1676 56.6938 90.0574 57.5333 89.491 58.0159Z" fill="url(#paint0_linear)"/>
<path d="M49.6552 43.4483C49.6552 39.1702 46.1747 35.6897 41.8966 35.6897C37.6185 35.6897 34.1379 39.1702 34.1379 43.4483C34.1379 47.7264 37.6185 51.2069 41.8966 51.2069C46.1747 51.2069 49.6552 47.7264 49.6552 43.4483ZM41.8966 48.1035C39.33 48.1035 37.2414 46.0149 37.2414 43.4483C37.2414 40.8818 39.33 38.7931 41.8966 38.7931C44.4631 38.7931 46.5517 40.8818 46.5517 43.4483C46.5517 46.0149 44.4631 48.1035 41.8966 48.1035Z" fill="url(#paint1_linear)"/>
<path d="M65.1724 27.931C72.8736 27.931 79.1379 21.6652 79.1379 13.9655C79.1379 6.26586 72.8736 0 65.1724 0C57.4712 0 51.2069 6.26586 51.2069 13.9655C51.2069 21.6652 57.4712 27.931 65.1724 27.931ZM65.1724 3.10345C71.1605 3.10345 76.0345 7.97586 76.0345 13.9655C76.0345 19.9552 71.1605 24.8276 65.1724 24.8276C59.1843 24.8276 54.3104 19.9552 54.3104 13.9655C54.3104 7.97586 59.1843 3.10345 65.1724 3.10345Z" fill="url(#paint2_linear)"/>
<path d="M65.1724 21.7242C69.4505 21.7242 72.9311 18.2436 72.9311 13.9655C72.9311 9.68743 69.4505 6.20691 65.1724 6.20691C60.8943 6.20691 57.4138 9.68743 57.4138 13.9655C57.4138 18.2436 60.8943 21.7242 65.1724 21.7242ZM65.1724 9.31036C67.739 9.31036 69.8276 11.399 69.8276 13.9655C69.8276 16.5321 67.739 18.6207 65.1724 18.6207C62.6059 18.6207 60.5173 16.5321 60.5173 13.9655C60.5173 11.399 62.6059 9.31036 65.1724 9.31036Z" fill="url(#paint3_linear)"/>
<defs>
<linearGradient id="paint0_linear" x1="106.955" y1="82.6155" x2="3.23143" y2="18.2145" gradientUnits="userSpaceOnUse">
<stop stop-color="#776AC4"/>
<stop offset="1" stop-color="#21B576"/>
</linearGradient>
<linearGradient id="paint1_linear" x1="51.9643" y1="49.3135" x2="31.367" y2="41.0007" gradientUnits="userSpaceOnUse">
<stop stop-color="#776AC4"/>
<stop offset="1" stop-color="#21B576"/>
</linearGradient>
<linearGradient id="paint2_linear" x1="83.2943" y1="24.5228" x2="46.2192" y2="9.55973" gradientUnits="userSpaceOnUse">
<stop stop-color="#776AC4"/>
<stop offset="1" stop-color="#21B576"/>
</linearGradient>
<linearGradient id="paint3_linear" x1="75.2402" y1="19.8307" x2="54.6429" y2="11.5179" gradientUnits="userSpaceOnUse">
<stop stop-color="#776AC4"/>
<stop offset="1" stop-color="#21B576"/>
</linearGradient>
</defs>
</svg>
