<svg width="90" height="90" viewBox="0 0 90 90" fill="none" xmlns="http://www.w3.org/2000/svg">
<path d="M86.2351 40.5H81V31.0981C81 28.8391 79.161 27 76.902 27H75V0H15V3H10.5V6H6V16.5H4.09799C1.83899 16.5 0 18.339 0 20.598V86.1284H0.00906372C0.00156372 86.9729 0.264023 87.7995 0.792023 88.491C1.52702 89.451 2.64 90 3.8475 90H70.9861C72.7215 90 74.2485 88.83 74.6595 87.2805L90 45.2236V44.9581C90 42.3751 88.4161 40.5 86.2351 40.5ZM76.902 30C77.508 30 78 30.4921 78 31.0981V40.5H75V30H76.902ZM72 3V27V40.5H19.0965C18.747 40.5 18.411 40.5585 18.0855 40.647C18.0585 40.6545 18.027 40.6514 18 40.6589V3H72ZM15 6V44.3774L14.9055 44.6371L13.5 48.4891V6H15ZM9 9H10.5V56.7151L9 60.8265V16.5V9ZM3 20.598C3 19.992 3.49349 19.5 4.09799 19.5H6V68.9145L3 77.0969V20.598ZM71.8021 86.376C71.7046 86.7435 71.3686 87 70.9861 87H3.8475C3.483 87 3.27001 86.7914 3.17551 86.6669C3.08101 86.5439 2.93553 86.283 2.99103 86.055L6 77.805V77.8065L10.5 65.469L15 53.1315V53.1359L17.898 45.1846L18 44.907L18.2401 44.2485L18.2791 44.1255C18.3781 43.758 18.7155 43.5 19.0965 43.5H72H75H81H86.2351C86.8036 43.5 86.9505 44.319 86.9865 44.7285L71.8021 86.376Z" fill="url(#paint0_linear)"/>
<path d="M27 25.5H63C63.828 25.5 64.5 24.8295 64.5 24C64.5 23.1705 63.828 22.5 63 22.5H27C26.172 22.5 25.5 23.1705 25.5 24C25.5 24.8295 26.172 25.5 27 25.5Z" fill="url(#paint1_linear)"/>
<path d="M27 15H42C42.828 15 43.5 14.3295 43.5 13.5C43.5 12.6705 42.828 12 42 12H27C26.172 12 25.5 12.6705 25.5 13.5C25.5 14.3295 26.172 15 27 15Z" fill="url(#paint2_linear)"/>
<path d="M27 36H63C63.828 36 64.5 35.3295 64.5 34.5C64.5 33.6705 63.828 33 63 33H27C26.172 33 25.5 33.6705 25.5 34.5C25.5 35.3295 26.172 36 27 36Z" fill="url(#paint3_linear)"/>
<defs>
<linearGradient id="paint0_linear" x1="103.393" y1="79.0179" x2="-16.0714" y2="30.8036" gradientUnits="userSpaceOnUse">
<stop stop-color="#776AC4"/>
<stop offset="1" stop-color="#21B576"/>
</linearGradient>
<linearGradient id="paint1_linear" x1="70.3036" y1="25.1339" x2="68.1933" y2="14.0621" gradientUnits="userSpaceOnUse">
<stop stop-color="#776AC4"/>
<stop offset="1" stop-color="#21B576"/>
</linearGradient>
<linearGradient id="paint2_linear" x1="46.1786" y1="14.6339" x2="42.1306" y2="4.8316" gradientUnits="userSpaceOnUse">
<stop stop-color="#776AC4"/>
<stop offset="1" stop-color="#21B576"/>
</linearGradient>
<linearGradient id="paint3_linear" x1="70.3036" y1="35.6339" x2="68.1933" y2="24.5621" gradientUnits="userSpaceOnUse">
<stop stop-color="#776AC4"/>
<stop offset="1" stop-color="#21B576"/>
</linearGradient>
</defs>
</svg>
