<svg width="498" height="492" viewBox="0 0 498 492" fill="none" xmlns="http://www.w3.org/2000/svg">
<path d="M150.921 0.476807L138.365 21.7748L125.491 0.476807H117.385V37.6688H126.762V18.7549L135.822 33.8543H140.431L149.809 18.4371V37.6688H159.027V0.476807H150.921Z" fill="#009CE9"/>
<path d="M179.69 8.26489C170.471 8.26489 163.796 14.4636 163.796 23.2053C163.796 31.7881 170.471 38.1457 179.69 38.1457C188.908 38.1457 195.425 31.947 195.425 23.2053C195.425 14.4636 188.75 8.26489 179.69 8.26489ZM179.69 29.8808C176.034 29.8808 173.491 27.1788 173.491 23.0463C173.491 18.9139 176.034 16.2119 179.69 16.2119C183.346 16.2119 185.889 18.9139 185.889 23.0463C185.889 27.1788 183.346 29.8808 179.69 29.8808Z" fill="#009CE9"/>
<path d="M208.776 11.1258V8.74171H199.558V37.6689H209.094V24C209.094 19.5497 211.319 17.1656 215.611 17.1656C216.087 17.1656 216.564 17.1656 217.041 17.1656L218.313 17.3245V8.26489H217.518C213.862 8.26489 210.842 9.21853 208.776 11.1258Z" fill="#009CE9"/>
<path d="M238.021 8.26489C229.12 8.26489 222.604 14.4636 222.604 23.2053C222.604 31.947 229.279 38.1457 238.974 38.1457C244.06 38.1457 248.193 36.5563 250.895 33.3775L251.372 32.9006L246.127 27.1788L245.491 27.6556C243.743 29.404 241.835 30.0397 239.133 30.0397C235.796 30.0397 233.411 28.6093 232.299 26.0662H252.643L252.802 24.7947C252.802 24.3179 252.961 23.6821 252.961 23.2053C253.12 14.4636 246.921 8.26489 238.021 8.26489ZM243.743 20.0265H232.299C233.094 17.4834 235.16 15.894 238.021 15.894C240.882 15.894 243.107 17.4834 243.743 20.0265Z" fill="#009CE9"/>
<path d="M278.55 8.42384C281.888 8.42384 284.59 9.69536 286.974 12.3973L287.451 13.0331L293.967 7.15232L293.491 6.51655C289.994 2.22516 284.59 0 278.232 0C266.63 0 258.047 8.10596 258.047 19.2318C258.047 30.3576 266.471 38.4636 278.073 38.4636C284.431 38.4636 289.835 36.0795 293.332 31.7881L293.808 31.1523L287.292 25.2715L286.815 25.9073C284.59 28.4503 281.729 29.8808 278.391 29.8808C272.193 29.8808 267.742 25.5894 267.742 19.2318C268.06 12.8742 272.352 8.42384 278.55 8.42384Z" fill="#009CE9"/>
<path d="M310.656 8.26489C306.047 8.26489 301.438 9.53642 298.418 11.7616L297.782 12.2384L301.438 19.2318L302.233 18.596C304.14 17.1656 306.842 16.2119 309.544 16.2119C312.882 16.2119 314.789 17.4834 314.948 20.0265H309.703C298.736 20.0265 297.146 25.5894 297.146 29.0861C297.146 34.49 301.597 38.1457 308.113 38.1457C311.292 38.1457 313.835 37.351 315.584 35.7616V37.8278H324.643V21.298C324.643 12.7152 319.875 8.26489 310.656 8.26489ZM315.107 26.2252V28.1324C314.312 30.0397 312.564 31.1523 310.021 31.1523C307.795 31.1523 306.365 30.1987 306.365 28.6093C306.365 27.9735 306.365 26.2252 310.497 26.2252H315.107Z" fill="#009CE9"/>
<path d="M339.901 11.1258V8.74171H330.683V37.6689H340.219V24C340.219 19.5497 342.444 17.1656 346.736 17.1656C347.212 17.1656 347.689 17.1656 348.166 17.1656L349.438 17.3245V8.26489H348.643C344.828 8.26489 341.967 9.21853 339.901 11.1258Z" fill="#009CE9"/>
<path d="M375.821 10.9669C373.755 9.21853 370.894 8.26489 367.556 8.26489C359.132 8.26489 353.093 14.1457 353.093 22.2516C353.093 30.3576 359.132 36.2384 367.556 36.2384C370.735 36.2384 373.278 35.4437 375.344 33.8543C375.185 37.9867 372.96 39.894 368.192 39.894C364.854 39.894 361.199 38.7814 358.974 37.0331L358.179 36.3973L354.205 43.5497L354.682 44.0265C357.861 46.5695 362.947 48 368.669 48C379.159 48 384.881 42.596 384.881 32.4238V8.74171H375.821V10.9669ZM369.146 28.2914C365.331 28.2914 362.788 25.9073 362.788 22.4106C362.788 18.9139 365.49 16.5298 369.146 16.5298C372.96 16.5298 375.503 18.9139 375.503 22.4106C375.503 25.9073 372.96 28.2914 369.146 28.2914Z" fill="#009CE9"/>
<path d="M405.067 8.26489C395.848 8.26489 389.173 14.4636 389.173 23.2053C389.173 31.7881 395.848 38.1457 405.067 38.1457C414.285 38.1457 420.802 31.947 420.802 23.2053C420.802 14.4636 414.126 8.26489 405.067 8.26489ZM405.067 29.8808C401.411 29.8808 398.868 27.1788 398.868 23.0463C398.868 18.9139 401.411 16.2119 405.067 16.2119C408.723 16.2119 411.266 18.9139 411.266 23.0463C411.266 27.1788 408.723 29.8808 405.067 29.8808Z" fill="#009CE9"/>
<path d="M134.749 221.938H157.952V254.703H134.749V299H94.1084V254.703H10.1553L8.32715 229.109L93.6865 94.25H134.749V221.938ZM48.8271 221.938H94.1084V149.656L91.4365 154.297L48.8271 221.938ZM317.702 214.344C317.702 242.656 311.843 264.312 300.124 279.312C288.405 294.312 271.249 301.812 248.655 301.812C226.343 301.812 209.28 294.453 197.468 279.734C185.655 265.016 179.608 243.922 179.327 216.453V178.766C179.327 150.172 185.233 128.469 197.046 113.656C208.952 98.8438 226.062 91.4375 248.374 91.4375C270.687 91.4375 287.749 98.7969 299.562 113.516C311.374 128.141 317.421 149.188 317.702 176.656V214.344ZM277.062 173C277.062 156.031 274.718 143.703 270.03 136.016C265.437 128.234 258.218 124.344 248.374 124.344C238.812 124.344 231.733 128.047 227.14 135.453C222.64 142.766 220.249 154.25 219.968 169.906V219.688C219.968 236.375 222.218 248.797 226.718 256.953C231.312 265.016 238.624 269.047 248.655 269.047C258.593 269.047 265.765 265.156 270.171 257.375C274.577 249.594 276.874 237.688 277.062 221.656V173ZM465.499 221.938H488.702V254.703H465.499V299H424.858V254.703H340.905L339.077 229.109L424.437 94.25H465.499V221.938ZM379.577 221.938H424.858V149.656L422.187 154.297L379.577 221.938Z" fill="#009CE9"/>
<path d="M209.957 351.354C209.957 353.166 209.652 354.748 209.043 356.103C208.434 357.448 207.57 358.477 206.453 359.188C205.336 359.898 204.033 360.254 202.543 360.254C201.087 360.254 199.797 359.898 198.671 359.188C197.545 358.468 196.669 357.448 196.043 356.128C195.425 354.799 195.108 353.263 195.091 351.52V350.187C195.091 348.409 195.4 346.839 196.018 345.477C196.635 344.114 197.507 343.073 198.633 342.354C199.767 341.626 201.062 341.262 202.518 341.262C203.999 341.262 205.302 341.621 206.428 342.341C207.562 343.052 208.434 344.089 209.043 345.451C209.652 346.805 209.957 348.384 209.957 350.187V351.354ZM207.532 350.161C207.532 347.969 207.092 346.289 206.212 345.121C205.332 343.945 204.1 343.356 202.518 343.356C200.977 343.356 199.763 343.945 198.874 345.121C197.994 346.289 197.541 347.914 197.516 349.996V351.354C197.516 353.479 197.96 355.15 198.849 356.369C199.746 357.579 200.977 358.185 202.543 358.185C204.117 358.185 205.336 357.613 206.199 356.471C207.062 355.32 207.507 353.674 207.532 351.532V350.161ZM216.152 341.516V358.007H222.513V341.516H224.938V358.007H231.26V341.516H233.697V360H213.702V341.516H216.152ZM249.744 341.516H252.182V360H249.744V345.756L240.642 360H238.191V341.516H240.642V355.76L249.744 341.516ZM267.898 343.521H258.986V349.057H263.582C265.512 349.082 267.018 349.577 268.102 350.542C269.185 351.507 269.727 352.819 269.727 354.478C269.727 356.145 269.181 357.474 268.089 358.464C266.997 359.454 265.507 359.966 263.62 360H256.536V341.516H267.898V343.521ZM258.986 351.062V358.007H263.442C264.653 358.007 265.592 357.685 266.261 357.042C266.938 356.399 267.276 355.535 267.276 354.452C267.276 353.411 266.951 352.59 266.299 351.989C265.656 351.388 264.737 351.079 263.544 351.062H258.986ZM277.826 351.697H275.579V360H273.142V341.516H275.579V349.666H277.483L283.945 341.516H286.979L279.921 350.479L287.5 360H284.517L277.826 351.697ZM299.941 355.176H292.197L290.458 360H287.944L295.003 341.516H297.136L304.207 360H301.706L299.941 355.176ZM292.934 353.17H299.218L296.069 344.524L292.934 353.17Z" fill="#009CE9"/>
<path d="M65.6279 418.3C65.25 421.533 64.0532 424.032 62.0376 425.795C60.036 427.545 57.3695 428.42 54.0381 428.42C50.4268 428.42 47.5293 427.125 45.3457 424.536C43.1761 421.946 42.0913 418.482 42.0913 414.143V411.203C42.0913 408.362 42.5952 405.863 43.603 403.708C44.6248 401.552 46.0666 399.9 47.9282 398.752C49.7899 397.591 51.9455 397.01 54.395 397.01C57.6424 397.01 60.2459 397.92 62.2056 399.739C64.1652 401.545 65.306 404.05 65.6279 407.256H61.5757C61.2257 404.82 60.4629 403.057 59.2871 401.965C58.1253 400.873 56.4946 400.327 54.395 400.327C51.8195 400.327 49.7969 401.279 48.3271 403.183C46.8714 405.086 46.1436 407.795 46.1436 411.308V414.269C46.1436 417.586 46.8364 420.224 48.2222 422.184C49.6079 424.144 51.5465 425.124 54.0381 425.124C56.2777 425.124 57.9924 424.62 59.1821 423.612C60.3859 422.59 61.1838 420.819 61.5757 418.3H65.6279ZM87.4219 408.432H79.8003V428H75.916V408.432H68.4414V405.282H87.4219V408.432ZM110.392 416.893C110.392 420.35 109.601 423.136 108.019 425.25C106.437 427.363 104.296 428.42 101.594 428.42C98.8368 428.42 96.6672 427.545 95.0854 425.795V436.734H91.2012V405.282H94.7495L94.9385 407.802C96.5202 405.842 98.7178 404.862 101.531 404.862C104.261 404.862 106.416 405.891 107.998 407.949C109.594 410.006 110.392 412.869 110.392 416.536V416.893ZM106.507 416.452C106.507 413.891 105.961 411.868 104.87 410.384C103.778 408.901 102.28 408.159 100.376 408.159C98.0249 408.159 96.2612 409.201 95.0854 411.287V422.142C96.2472 424.214 98.0249 425.25 100.418 425.25C102.28 425.25 103.757 424.515 104.849 423.045C105.954 421.561 106.507 419.364 106.507 416.452ZM129.372 428C129.148 427.552 128.966 426.754 128.826 425.606C127.021 427.482 124.865 428.42 122.359 428.42C120.12 428.42 118.279 427.79 116.837 426.53C115.41 425.257 114.696 423.647 114.696 421.701C114.696 419.336 115.592 417.502 117.383 416.2C119.189 414.884 121.722 414.227 124.984 414.227H128.763V412.442C128.763 411.084 128.357 410.006 127.545 409.208C126.734 408.397 125.537 407.991 123.955 407.991C122.569 407.991 121.408 408.341 120.47 409.041C119.532 409.74 119.063 410.587 119.063 411.581H115.158C115.158 410.447 115.557 409.355 116.354 408.306C117.166 407.242 118.258 406.402 119.63 405.786C121.016 405.17 122.534 404.862 124.186 404.862C126.804 404.862 128.854 405.52 130.338 406.836C131.822 408.138 132.591 409.936 132.647 412.232V422.688C132.647 424.774 132.913 426.432 133.445 427.664V428H129.372ZM122.926 425.04C124.144 425.04 125.299 424.725 126.391 424.095C127.482 423.465 128.273 422.646 128.763 421.638V416.977H125.719C120.96 416.977 118.58 418.37 118.58 421.155C118.58 422.373 118.986 423.325 119.798 424.011C120.61 424.697 121.653 425.04 122.926 425.04ZM157.297 428H153.413V418.3H142.978V428H139.072V405.282H142.978V415.129H153.413V405.282H157.297V428ZM178.251 405.282H182.135V428H178.251V411.434L167.774 428H163.89V405.282H167.774V421.869L178.251 405.282ZM188.707 405.282H192.612V424.83H203.068V405.282H206.953V424.83H209.661L209.283 434.74H205.798V428H188.707V405.282ZM227.886 428C227.662 427.552 227.48 426.754 227.34 425.606C225.534 427.482 223.379 428.42 220.873 428.42C218.633 428.42 216.793 427.79 215.351 426.53C213.923 425.257 213.209 423.647 213.209 421.701C213.209 419.336 214.105 417.502 215.897 416.2C217.703 414.884 220.236 414.227 223.498 414.227H227.277V412.442C227.277 411.084 226.871 410.006 226.059 409.208C225.247 408.397 224.05 407.991 222.469 407.991C221.083 407.991 219.921 408.341 218.983 409.041C218.046 409.74 217.577 410.587 217.577 411.581H213.671C213.671 410.447 214.07 409.355 214.868 408.306C215.68 407.242 216.772 406.402 218.144 405.786C219.529 405.17 221.048 404.862 222.7 404.862C225.317 404.862 227.368 405.52 228.852 406.836C230.335 408.138 231.105 409.936 231.161 412.232V422.688C231.161 424.774 231.427 426.432 231.959 427.664V428H227.886ZM221.44 425.04C222.658 425.04 223.812 424.725 224.904 424.095C225.996 423.465 226.787 422.646 227.277 421.638V416.977H224.232C219.473 416.977 217.094 418.37 217.094 421.155C217.094 422.373 217.5 423.325 218.312 424.011C219.123 424.697 220.166 425.04 221.44 425.04ZM266.477 428H262.592V418.3H252.157V428H248.252V405.282H252.157V415.129H262.592V405.282H266.477V428ZM282.161 428.42C279.081 428.42 276.576 427.412 274.644 425.396C272.712 423.367 271.747 420.658 271.747 417.271V416.557C271.747 414.304 272.174 412.295 273.027 410.531C273.895 408.754 275.099 407.368 276.639 406.374C278.192 405.366 279.872 404.862 281.678 404.862C284.631 404.862 286.927 405.835 288.564 407.781C290.202 409.726 291.021 412.512 291.021 416.137V417.754H275.631C275.687 419.993 276.338 421.806 277.583 423.192C278.843 424.564 280.439 425.25 282.371 425.25C283.742 425.25 284.904 424.97 285.856 424.41C286.808 423.85 287.641 423.108 288.354 422.184L290.727 424.032C288.823 426.957 285.968 428.42 282.161 428.42ZM281.678 408.054C280.11 408.054 278.794 408.628 277.73 409.775C276.667 410.909 276.009 412.505 275.757 414.562H287.137V414.269C287.025 412.295 286.493 410.769 285.541 409.691C284.589 408.6 283.301 408.054 281.678 408.054ZM324.762 428H320.877V418.3H310.442V428H306.537V405.282H310.442V415.129H320.877V405.282H324.762V428ZM345.044 428C344.82 427.552 344.638 426.754 344.498 425.606C342.692 427.482 340.537 428.42 338.031 428.42C335.792 428.42 333.951 427.79 332.509 426.53C331.082 425.257 330.368 423.647 330.368 421.701C330.368 419.336 331.264 417.502 333.055 416.2C334.861 414.884 337.394 414.227 340.656 414.227H344.435V412.442C344.435 411.084 344.029 410.006 343.217 409.208C342.405 408.397 341.209 407.991 339.627 407.991C338.241 407.991 337.079 408.341 336.142 409.041C335.204 409.74 334.735 410.587 334.735 411.581H330.83C330.83 410.447 331.229 409.355 332.026 408.306C332.838 407.242 333.93 406.402 335.302 405.786C336.688 405.17 338.206 404.862 339.858 404.862C342.475 404.862 344.526 405.52 346.01 406.836C347.493 408.138 348.263 409.936 348.319 412.232V422.688C348.319 424.774 348.585 426.432 349.117 427.664V428H345.044ZM338.598 425.04C339.816 425.04 340.971 424.725 342.062 424.095C343.154 423.465 343.945 422.646 344.435 421.638V416.977H341.391C336.632 416.977 334.252 418.37 334.252 421.155C334.252 422.373 334.658 423.325 335.47 424.011C336.282 424.697 337.324 425.04 338.598 425.04ZM369.105 405.282H372.99V428H369.105V411.434L358.628 428H354.744V405.282H358.628V421.869L369.105 405.282ZM370.155 397.01C370.155 398.703 369.574 400.068 368.413 401.104C367.265 402.126 365.753 402.637 363.877 402.637C362.002 402.637 360.483 402.119 359.321 401.083C358.16 400.047 357.579 398.689 357.579 397.01H360.749C360.749 397.99 361.015 398.759 361.547 399.319C362.079 399.865 362.856 400.138 363.877 400.138C364.857 400.138 365.62 399.865 366.166 399.319C366.726 398.773 367.006 398.004 367.006 397.01H370.155ZM379.037 424.83L380.38 423.171C381.892 421.211 382.753 418.272 382.963 414.353L383.32 405.282H397.954V424.83H400.873V434.677H396.988V428H381.136V434.677H377.252L377.273 424.83H379.037ZM383.635 424.83H394.07V408.873H387.078L386.847 414.29C386.609 418.811 385.538 422.324 383.635 424.83ZM414.604 428.42C411.525 428.42 409.019 427.412 407.087 425.396C405.156 423.367 404.19 420.658 404.19 417.271V416.557C404.19 414.304 404.617 412.295 405.471 410.531C406.339 408.754 407.542 407.368 409.082 406.374C410.636 405.366 412.315 404.862 414.121 404.862C417.075 404.862 419.37 405.835 421.008 407.781C422.646 409.726 423.464 412.512 423.464 416.137V417.754H408.074C408.13 419.993 408.781 421.806 410.027 423.192C411.287 424.564 412.882 425.25 414.814 425.25C416.186 425.25 417.347 424.97 418.299 424.41C419.251 423.85 420.084 423.108 420.798 422.184L423.17 424.032C421.267 426.957 418.411 428.42 414.604 428.42ZM414.121 408.054C412.553 408.054 411.238 408.628 410.174 409.775C409.11 410.909 408.452 412.505 408.2 414.562H419.58V414.269C419.468 412.295 418.936 410.769 417.984 409.691C417.033 408.6 415.745 408.054 414.121 408.054ZM446.539 428H442.655V418.3H432.22V428H428.314V405.282H432.22V415.129H442.655V405.282H446.539V428ZM466.821 428C466.597 427.552 466.415 426.754 466.275 425.606C464.47 427.482 462.314 428.42 459.809 428.42C457.569 428.42 455.728 427.79 454.287 426.53C452.859 425.257 452.145 423.647 452.145 421.701C452.145 419.336 453.041 417.502 454.833 416.2C456.638 414.884 459.172 414.227 462.433 414.227H466.212V412.442C466.212 411.084 465.806 410.006 464.995 409.208C464.183 408.397 462.986 407.991 461.404 407.991C460.019 407.991 458.857 408.341 457.919 409.041C456.981 409.74 456.512 410.587 456.512 411.581H452.607C452.607 410.447 453.006 409.355 453.804 408.306C454.616 407.242 455.707 406.402 457.079 405.786C458.465 405.17 459.984 404.862 461.635 404.862C464.253 404.862 466.303 405.52 467.787 406.836C469.271 408.138 470.041 409.936 470.097 412.232V422.688C470.097 424.774 470.363 426.432 470.895 427.664V428H466.821ZM460.375 425.04C461.593 425.04 462.748 424.725 463.84 424.095C464.932 423.465 465.722 422.646 466.212 421.638V416.977H463.168C458.409 416.977 456.029 418.37 456.029 421.155C456.029 422.373 456.435 423.325 457.247 424.011C458.059 424.697 459.102 425.04 460.375 425.04Z" fill="#009CE9"/>
<path d="M115.178 480H113.616V462.849H103.155V480H101.594V461.516H115.178V480ZM118.745 472.929C118.745 471.608 118.999 470.419 119.507 469.361C120.023 468.303 120.747 467.482 121.678 466.898C122.617 466.306 123.679 466.01 124.864 466.01C126.692 466.01 128.174 466.653 129.308 467.939C130.442 469.217 131.009 470.914 131.009 473.03V473.348C131.009 474.676 130.751 475.874 130.234 476.94C129.727 477.998 129.007 478.815 128.076 479.391C127.145 479.966 126.083 480.254 124.89 480.254C123.07 480.254 121.589 479.615 120.446 478.337C119.312 477.05 118.745 475.349 118.745 473.233V472.929ZM120.269 473.348C120.269 474.99 120.692 476.34 121.538 477.397C122.393 478.447 123.51 478.972 124.89 478.972C126.261 478.972 127.369 478.447 128.216 477.397C129.071 476.34 129.498 474.947 129.498 473.221V472.929C129.498 471.879 129.303 470.919 128.914 470.047C128.525 469.175 127.979 468.502 127.276 468.028C126.574 467.546 125.77 467.305 124.864 467.305C123.51 467.305 122.406 467.838 121.551 468.904C120.696 469.962 120.269 471.35 120.269 473.068V473.348ZM144.707 480H143.184V467.571H135.782V480H134.259V466.264H144.707V480ZM159.827 473.271C159.827 475.413 159.353 477.114 158.405 478.375C157.457 479.628 156.188 480.254 154.597 480.254C152.718 480.254 151.279 479.594 150.28 478.273V485.281H148.77V466.264H150.179L150.255 468.206C151.245 466.742 152.68 466.01 154.559 466.01C156.201 466.01 157.487 466.632 158.418 467.876C159.357 469.12 159.827 470.847 159.827 473.056V473.271ZM158.304 473.005C158.304 471.253 157.944 469.869 157.225 468.854C156.505 467.838 155.502 467.33 154.216 467.33C153.285 467.33 152.485 467.554 151.816 468.003C151.148 468.451 150.636 469.103 150.28 469.958V476.547C150.644 477.334 151.165 477.935 151.842 478.35C152.519 478.764 153.319 478.972 154.241 478.972C155.519 478.972 156.514 478.464 157.225 477.448C157.944 476.424 158.304 474.943 158.304 473.005ZM162.366 472.929C162.366 471.608 162.62 470.419 163.128 469.361C163.644 468.303 164.368 467.482 165.299 466.898C166.238 466.306 167.3 466.01 168.485 466.01C170.313 466.01 171.795 466.653 172.929 467.939C174.063 469.217 174.63 470.914 174.63 473.03V473.348C174.63 474.676 174.372 475.874 173.855 476.94C173.348 477.998 172.628 478.815 171.697 479.391C170.766 479.966 169.704 480.254 168.511 480.254C166.691 480.254 165.21 479.615 164.067 478.337C162.933 477.05 162.366 475.349 162.366 473.233V472.929ZM163.89 473.348C163.89 474.99 164.313 476.34 165.159 477.397C166.014 478.447 167.131 478.972 168.511 478.972C169.882 478.972 170.991 478.447 171.837 477.397C172.692 476.34 173.119 474.947 173.119 473.221V472.929C173.119 471.879 172.924 470.919 172.535 470.047C172.146 469.175 171.6 468.502 170.897 468.028C170.195 467.546 169.391 467.305 168.485 467.305C167.131 467.305 166.027 467.838 165.172 468.904C164.317 469.962 163.89 471.35 163.89 473.068V473.348ZM183.313 467.178C185.057 467.178 186.47 467.749 187.554 468.892C188.637 470.026 189.179 471.532 189.179 473.411V473.741C189.179 474.985 188.929 476.107 188.43 477.105C187.939 478.096 187.228 478.87 186.297 479.429C185.374 479.979 184.312 480.254 183.11 480.254C181.299 480.254 179.831 479.653 178.705 478.451C177.588 477.241 177.029 475.629 177.029 473.614V472.396C177.029 469.552 177.571 467.279 178.654 465.578C179.738 463.877 181.278 462.861 183.275 462.531C184.536 462.328 185.421 462.053 185.929 461.706C186.445 461.359 186.703 460.885 186.703 460.284H188.011C188.011 460.995 187.863 461.583 187.566 462.049C187.27 462.514 186.826 462.891 186.233 463.179C185.641 463.458 184.735 463.695 183.517 463.89C182.12 464.11 180.994 464.706 180.14 465.68C179.293 466.645 178.743 467.939 178.489 469.564C179.031 468.854 179.708 468.278 180.521 467.838C181.341 467.398 182.272 467.178 183.313 467.178ZM178.553 473.424V473.741C178.553 475.29 178.972 476.551 179.81 477.524C180.647 478.489 181.748 478.972 183.11 478.972C184.481 478.972 185.582 478.485 186.411 477.512C187.241 476.53 187.655 475.243 187.655 473.652V473.322C187.655 471.892 187.232 470.724 186.386 469.818C185.548 468.913 184.448 468.46 183.085 468.46C181.722 468.46 180.626 468.921 179.797 469.844C178.967 470.758 178.553 471.951 178.553 473.424ZM196.453 477.816L200.465 466.264H202.103L196.237 482.336L195.933 483.047C195.179 484.714 194.016 485.548 192.441 485.548C192.077 485.548 191.688 485.489 191.273 485.37L191.261 484.113L192.048 484.189C192.793 484.189 193.394 484.003 193.851 483.631C194.316 483.267 194.71 482.636 195.031 481.739L195.704 479.886L190.524 466.264H192.188L196.453 477.816ZM213.49 466.264H215.014V480H213.49V468.714L206.076 480H204.565V466.264H206.076V477.562L213.49 466.264ZM213.414 461.312C213.414 462.286 213.08 463.073 212.411 463.674C211.751 464.275 210.862 464.575 209.745 464.575C208.645 464.575 207.756 464.279 207.079 463.687C206.41 463.086 206.076 462.294 206.076 461.312H207.371C207.371 462.015 207.578 462.552 207.993 462.925C208.416 463.297 209 463.483 209.745 463.483C210.49 463.483 211.07 463.289 211.484 462.899C211.908 462.51 212.119 461.981 212.119 461.312H213.414ZM228.953 467.559H223.951V480H222.428V467.559H217.616V466.264H228.953V467.559ZM235.758 480.254C234.59 480.254 233.532 479.966 232.584 479.391C231.645 478.815 230.912 478.015 230.388 476.991C229.863 475.959 229.601 474.803 229.601 473.525V472.979C229.601 471.659 229.854 470.47 230.362 469.412C230.879 468.354 231.594 467.525 232.508 466.924C233.422 466.314 234.412 466.01 235.479 466.01C237.146 466.01 238.466 466.581 239.439 467.724C240.421 468.858 240.912 470.411 240.912 472.383V473.233H231.111V473.525C231.111 475.083 231.556 476.382 232.444 477.423C233.341 478.455 234.467 478.972 235.821 478.972C236.634 478.972 237.349 478.824 237.967 478.527C238.593 478.231 239.16 477.757 239.668 477.105L240.62 477.829C239.503 479.446 237.882 480.254 235.758 480.254ZM235.479 467.305C234.336 467.305 233.371 467.724 232.584 468.562C231.805 469.399 231.331 470.525 231.162 471.938H239.401V471.773C239.359 470.453 238.982 469.378 238.271 468.549C237.561 467.719 236.63 467.305 235.479 467.305ZM258.241 469.895C258.241 469.065 257.932 468.426 257.314 467.978C256.697 467.529 255.846 467.305 254.763 467.305C253.781 467.305 252.939 467.559 252.236 468.066C251.542 468.566 251.195 469.201 251.195 469.971H249.685C249.685 468.828 250.171 467.884 251.145 467.14C252.126 466.395 253.332 466.022 254.763 466.022C256.337 466.022 257.564 466.361 258.444 467.038C259.325 467.715 259.765 468.676 259.765 469.92C259.765 470.58 259.562 471.177 259.155 471.71C258.749 472.243 258.157 472.658 257.378 472.954C259.138 473.437 260.019 474.528 260.019 476.229C260.019 477.465 259.54 478.443 258.584 479.162C257.628 479.882 256.358 480.241 254.775 480.241C253.243 480.241 251.974 479.856 250.967 479.086C249.96 478.316 249.456 477.309 249.456 476.064H250.979C250.979 476.894 251.343 477.588 252.071 478.146C252.808 478.697 253.709 478.972 254.775 478.972C255.935 478.972 256.84 478.73 257.492 478.248C258.152 477.757 258.482 477.093 258.482 476.255C258.482 475.332 258.182 474.668 257.581 474.262C256.98 473.855 256.062 473.652 254.826 473.652H252.731V472.332H255.08C257.188 472.281 258.241 471.469 258.241 469.895ZM272.041 480C271.889 479.568 271.791 478.929 271.749 478.083C271.216 478.777 270.535 479.314 269.705 479.695C268.884 480.068 268.012 480.254 267.09 480.254C265.77 480.254 264.699 479.886 263.878 479.149C263.065 478.413 262.659 477.482 262.659 476.356C262.659 475.019 263.214 473.961 264.322 473.183C265.439 472.404 266.993 472.015 268.981 472.015H271.736V470.453C271.736 469.471 271.432 468.701 270.822 468.143C270.221 467.576 269.341 467.292 268.182 467.292C267.124 467.292 266.248 467.563 265.554 468.104C264.86 468.646 264.513 469.298 264.513 470.06L262.989 470.047C262.989 468.955 263.497 468.011 264.513 467.216C265.528 466.412 266.777 466.01 268.258 466.01C269.79 466.01 270.996 466.395 271.876 467.165C272.765 467.927 273.222 468.993 273.247 470.364V476.864C273.247 478.193 273.387 479.188 273.666 479.848V480H272.041ZM267.268 478.908C268.283 478.908 269.189 478.663 269.984 478.172C270.788 477.681 271.372 477.025 271.736 476.204V473.183H269.02C267.505 473.2 266.32 473.479 265.465 474.021C264.61 474.554 264.183 475.29 264.183 476.229C264.183 477 264.466 477.639 265.033 478.146C265.609 478.654 266.354 478.908 267.268 478.908ZM286.336 466.264H287.859V480H286.336V468.714L278.922 480H277.411V466.264H278.922V477.562L286.336 466.264ZM286.26 461.312C286.26 462.286 285.925 463.073 285.257 463.674C284.597 464.275 283.708 464.575 282.591 464.575C281.491 464.575 280.602 464.279 279.925 463.687C279.256 463.086 278.922 462.294 278.922 461.312H280.217C280.217 462.015 280.424 462.552 280.839 462.925C281.262 463.297 281.846 463.483 282.591 463.483C283.336 463.483 283.915 463.289 284.33 462.899C284.753 462.51 284.965 461.981 284.965 461.312H286.26ZM301.799 467.559H296.797V480H295.273V467.559H290.462V466.264H301.799V467.559ZM313.326 466.264H314.85V480H313.326V468.714L305.912 480H304.401V466.264H305.912V477.562L313.326 466.264ZM335.797 480H334.273V467.571H326.872V480H325.349V466.264H335.797V480ZM339.034 472.929C339.034 471.608 339.288 470.419 339.796 469.361C340.312 468.303 341.036 467.482 341.967 466.898C342.906 466.306 343.968 466.01 345.153 466.01C346.981 466.01 348.463 466.653 349.597 467.939C350.731 469.217 351.298 470.914 351.298 473.03V473.348C351.298 474.676 351.04 475.874 350.523 476.94C350.016 477.998 349.296 478.815 348.365 479.391C347.434 479.966 346.372 480.254 345.179 480.254C343.359 480.254 341.878 479.615 340.735 478.337C339.601 477.05 339.034 475.349 339.034 473.233V472.929ZM340.558 473.348C340.558 474.99 340.981 476.34 341.827 477.397C342.682 478.447 343.799 478.972 345.179 478.972C346.55 478.972 347.659 478.447 348.505 477.397C349.36 476.34 349.787 474.947 349.787 473.221V472.929C349.787 471.879 349.592 470.919 349.203 470.047C348.814 469.175 348.268 468.502 347.565 468.028C346.863 467.546 346.059 467.305 345.153 467.305C343.799 467.305 342.695 467.838 341.84 468.904C340.985 469.962 340.558 471.35 340.558 473.068V473.348ZM362.495 469.895C362.495 469.065 362.186 468.426 361.568 467.978C360.951 467.529 360.1 467.305 359.017 467.305C358.035 467.305 357.193 467.559 356.49 468.066C355.796 468.566 355.449 469.201 355.449 469.971H353.938C353.938 468.828 354.425 467.884 355.398 467.14C356.38 466.395 357.586 466.022 359.017 466.022C360.591 466.022 361.818 466.361 362.698 467.038C363.578 467.715 364.019 468.676 364.019 469.92C364.019 470.58 363.815 471.177 363.409 471.71C363.003 472.243 362.41 472.658 361.632 472.954C363.392 473.437 364.272 474.528 364.272 476.229C364.272 477.465 363.794 478.443 362.838 479.162C361.882 479.882 360.612 480.241 359.029 480.241C357.497 480.241 356.228 479.856 355.221 479.086C354.214 478.316 353.71 477.309 353.71 476.064H355.233C355.233 476.894 355.597 477.588 356.325 478.146C357.062 478.697 357.963 478.972 359.029 478.972C360.189 478.972 361.094 478.73 361.746 478.248C362.406 477.757 362.736 477.093 362.736 476.255C362.736 475.332 362.436 474.668 361.835 474.262C361.234 473.855 360.316 473.652 359.08 473.652H356.985V472.332H359.334C361.441 472.281 362.495 471.469 362.495 469.895ZM378.123 473.652H376.295V480H374.771V473.652H372.956L367.878 480H365.948L371.636 472.954L366.583 466.264H368.424L372.931 472.294H374.771V466.264H376.295V472.294H378.148L382.655 466.264H384.521L379.443 472.954L385.144 480H383.201L378.123 473.652ZM392.646 480.254C391.479 480.254 390.421 479.966 389.473 479.391C388.533 478.815 387.801 478.015 387.276 476.991C386.752 475.959 386.489 474.803 386.489 473.525V472.979C386.489 471.659 386.743 470.47 387.251 469.412C387.767 468.354 388.482 467.525 389.396 466.924C390.311 466.314 391.301 466.01 392.367 466.01C394.035 466.01 395.355 466.581 396.328 467.724C397.31 468.858 397.801 470.411 397.801 472.383V473.233H388V473.525C388 475.083 388.444 476.382 389.333 477.423C390.23 478.455 391.356 478.972 392.71 478.972C393.522 478.972 394.238 478.824 394.855 478.527C395.482 478.231 396.049 477.757 396.557 477.105L397.509 477.829C396.392 479.446 394.771 480.254 392.646 480.254ZM392.367 467.305C391.225 467.305 390.26 467.724 389.473 468.562C388.694 469.399 388.22 470.525 388.051 471.938H396.29V471.773C396.248 470.453 395.871 469.378 395.16 468.549C394.449 467.719 393.518 467.305 392.367 467.305Z" fill="#009CE9"/>
</svg>
