<svg width="541" height="364" viewBox="0 0 541 364" fill="none" xmlns="http://www.w3.org/2000/svg">
<path d="M151.831 0.476807L139.275 21.7748L126.401 0.476807H118.295V37.6688H127.672V18.7549L136.732 33.8543H141.341L150.719 18.4371V37.6688H159.937V0.476807H151.831Z" fill="#009CE9"/>
<path d="M180.6 8.26489C171.382 8.26489 164.706 14.4636 164.706 23.2053C164.706 31.7881 171.382 38.1457 180.6 38.1457C189.819 38.1457 196.335 31.947 196.335 23.2053C196.335 14.4636 189.66 8.26489 180.6 8.26489ZM180.6 29.8808C176.944 29.8808 174.401 27.1788 174.401 23.0463C174.401 18.9139 176.944 16.2119 180.6 16.2119C184.256 16.2119 186.799 18.9139 186.799 23.0463C186.799 27.1788 184.256 29.8808 180.6 29.8808Z" fill="#009CE9"/>
<path d="M209.686 11.1258V8.74171H200.468V37.6689H210.004V24C210.004 19.5497 212.229 17.1656 216.521 17.1656C216.998 17.1656 217.474 17.1656 217.951 17.1656L219.223 17.3245V8.26489H218.428C214.772 8.26489 211.753 9.21853 209.686 11.1258Z" fill="#009CE9"/>
<path d="M238.931 8.26489C230.03 8.26489 223.514 14.4636 223.514 23.2053C223.514 31.947 230.189 38.1457 239.885 38.1457C244.971 38.1457 249.103 36.5563 251.805 33.3775L252.282 32.9006L247.037 27.1788L246.401 27.6556C244.653 29.404 242.745 30.0397 240.043 30.0397C236.706 30.0397 234.322 28.6093 233.209 26.0662H253.553L253.712 24.7947C253.712 24.3179 253.871 23.6821 253.871 23.2053C254.03 14.4636 247.832 8.26489 238.931 8.26489ZM244.653 20.0265H233.209C234.004 17.4834 236.07 15.894 238.931 15.894C241.792 15.894 244.017 17.4834 244.653 20.0265Z" fill="#009CE9"/>
<path d="M279.46 8.42384C282.798 8.42384 285.5 9.69536 287.884 12.3973L288.361 13.0331L294.878 7.15232L294.401 6.51655C290.904 2.22516 285.5 0 279.142 0C267.54 0 258.957 8.10596 258.957 19.2318C258.957 30.3576 267.381 38.4636 278.984 38.4636C285.341 38.4636 290.745 36.0795 294.242 31.7881L294.719 31.1523L288.202 25.2715L287.725 25.9073C285.5 28.4503 282.639 29.8808 279.301 29.8808C273.103 29.8808 268.652 25.5894 268.652 19.2318C268.97 12.8742 273.262 8.42384 279.46 8.42384Z" fill="#009CE9"/>
<path d="M311.567 8.26489C306.957 8.26489 302.348 9.53642 299.328 11.7616L298.692 12.2384L302.348 19.2318L303.143 18.596C305.05 17.1656 307.752 16.2119 310.454 16.2119C313.792 16.2119 315.699 17.4834 315.858 20.0265H310.613C299.646 20.0265 298.057 25.5894 298.057 29.0861C298.057 34.49 302.507 38.1457 309.024 38.1457C312.202 38.1457 314.745 37.351 316.494 35.7616V37.8278H325.553V21.298C325.553 12.7152 320.785 8.26489 311.567 8.26489ZM316.017 26.2252V28.1324C315.222 30.0397 313.474 31.1523 310.931 31.1523C308.706 31.1523 307.275 30.1987 307.275 28.6093C307.275 27.9735 307.275 26.2252 311.408 26.2252H316.017Z" fill="#009CE9"/>
<path d="M340.811 11.1258V8.74171H331.593V37.6689H341.129V24C341.129 19.5497 343.354 17.1656 347.646 17.1656C348.123 17.1656 348.599 17.1656 349.076 17.1656L350.348 17.3245V8.26489H349.553C345.738 8.26489 342.878 9.21853 340.811 11.1258Z" fill="#009CE9"/>
<path d="M376.731 10.9669C374.665 9.21853 371.804 8.26489 368.466 8.26489C360.043 8.26489 354.003 14.1457 354.003 22.2516C354.003 30.3576 360.043 36.2384 368.466 36.2384C371.645 36.2384 374.188 35.4437 376.255 33.8543C376.096 37.9867 373.87 39.894 369.102 39.894C365.765 39.894 362.109 38.7814 359.884 37.0331L359.089 36.3973L355.116 43.5497L355.592 44.0265C358.771 46.5695 363.857 48 369.579 48C380.069 48 385.791 42.596 385.791 32.4238V8.74171H376.731V10.9669ZM370.056 28.2914C366.241 28.2914 363.698 25.9073 363.698 22.4106C363.698 18.9139 366.4 16.5298 370.056 16.5298C373.87 16.5298 376.414 18.9139 376.414 22.4106C376.414 25.9073 373.87 28.2914 370.056 28.2914Z" fill="#009CE9"/>
<path d="M405.977 8.26489C396.759 8.26489 390.083 14.4636 390.083 23.2053C390.083 31.7881 396.759 38.1457 405.977 38.1457C415.196 38.1457 421.712 31.947 421.712 23.2053C421.712 14.4636 415.037 8.26489 405.977 8.26489ZM405.977 29.8808C402.321 29.8808 399.778 27.1788 399.778 23.0463C399.778 18.9139 402.321 16.2119 405.977 16.2119C409.633 16.2119 412.176 18.9139 412.176 23.0463C412.176 27.1788 409.633 29.8808 405.977 29.8808Z" fill="#009CE9"/>
<path d="M93.2373 135.133C93.2373 145.211 91.4561 154.047 87.8936 161.641C84.3311 169.234 79.2217 175.094 72.5654 179.219C65.9561 183.344 58.3623 185.406 49.7842 185.406C41.2998 185.406 33.7295 183.367 27.0732 179.289C20.417 175.211 15.2607 169.398 11.6045 161.852C7.94824 154.258 6.09668 145.539 6.0498 135.695V130.633C6.0498 120.555 7.85449 111.695 11.4639 104.055C15.1201 96.3671 20.2529 90.4843 26.8623 86.4062C33.5186 82.2812 41.1123 80.2187 49.6436 80.2187C58.1748 80.2187 65.7451 82.2812 72.3545 86.4062C79.0107 90.4843 84.1436 96.3671 87.7529 104.055C91.4092 111.695 93.2373 120.531 93.2373 130.562V135.133ZM71.8623 130.492C71.8623 119.758 69.9404 111.602 66.0967 106.023C62.2529 100.445 56.7686 97.6562 49.6436 97.6562C42.5654 97.6562 37.1045 100.422 33.2607 105.953C29.417 111.437 27.4717 119.5 27.4248 130.141V135.133C27.4248 145.586 29.3467 153.695 33.1904 159.461C37.0342 165.227 42.5654 168.109 49.7842 168.109C56.8623 168.109 62.2998 165.344 66.0967 159.812C69.8936 154.234 71.8154 146.125 71.8623 135.484V130.492ZM127.55 107.922V167.617H148.433V107.922H168.823V167.617H189.706V107.922H210.026V184H107.229V107.922H127.55ZM272.183 107.922H292.503V184H272.183V137.031L246.729 184H226.339V107.922H246.729V154.82L272.183 107.922ZM345.8 112.141C355.55 112.141 363.331 115.375 369.144 121.844C374.956 128.312 377.862 137.102 377.862 148.211V149.195C377.862 160.164 374.628 168.953 368.159 175.562C361.69 182.172 352.995 185.477 342.073 185.477C331.104 185.477 322.362 181.914 315.847 174.789C309.378 167.617 306.144 157.891 306.144 145.609V142.234C306.237 125.125 309.12 111.742 314.792 102.086C320.511 92.3828 329.089 86.2656 340.526 83.7343C346.526 82.4218 350.394 81.1328 352.128 79.8671C353.862 78.5546 354.729 76.7499 354.729 74.4531H371.183C371.183 81.8124 369.19 87.3437 365.206 91.0468C361.269 94.7499 354.237 97.6093 344.112 99.6249C338.112 100.844 333.378 103.211 329.909 106.727C326.44 110.242 324.097 115.187 322.878 121.562C329.347 115.281 336.987 112.141 345.8 112.141ZM341.933 128.594C337.104 128.594 333.308 130.211 330.542 133.445C327.823 136.68 326.464 141.93 326.464 149.195C326.464 155.664 327.8 160.609 330.472 164.031C333.144 167.406 337.011 169.094 342.073 169.094C346.995 169.094 350.792 167.43 353.464 164.102C356.136 160.773 357.495 155.875 357.542 149.406V147.719C357.542 141.484 356.159 136.75 353.394 133.516C350.675 130.234 346.854 128.594 341.933 128.594ZM418.573 155.945H410.417V184H390.097V107.922H410.417V136.539H417.659L434.253 107.922H459.917L435.026 144.133L462.237 184H435.167L418.573 155.945ZM513.987 184C513.05 182.172 512.37 179.898 511.948 177.18C507.026 182.664 500.628 185.406 492.753 185.406C485.3 185.406 479.112 183.25 474.19 178.937C469.315 174.625 466.878 169.187 466.878 162.625C466.878 154.562 469.854 148.375 475.808 144.062C481.808 139.75 490.456 137.57 501.753 137.523H511.104V133.164C511.104 129.648 510.19 126.836 508.362 124.727C506.581 122.617 503.745 121.562 499.854 121.562C496.433 121.562 493.737 122.383 491.769 124.023C489.847 125.664 488.886 127.914 488.886 130.773H468.565C468.565 126.367 469.925 122.289 472.644 118.539C475.362 114.789 479.206 111.859 484.175 109.75C489.144 107.594 494.722 106.516 500.909 106.516C510.284 106.516 517.714 108.883 523.198 113.617C528.729 118.305 531.495 124.914 531.495 133.445V166.422C531.542 173.641 532.55 179.102 534.519 182.805V184H513.987ZM497.183 169.867C500.183 169.867 502.948 169.211 505.479 167.898C508.011 166.539 509.886 164.734 511.104 162.484V149.406H503.511C493.339 149.406 487.925 152.922 487.269 159.953L487.198 161.148C487.198 163.68 488.089 165.766 489.87 167.406C491.651 169.047 494.089 169.867 497.183 169.867Z" fill="#009CE9"/>
<path d="M178.826 230.43H182.857V261H178.826V237.442L163.771 261H159.719V230.43H163.771V253.987L178.826 230.43ZM202.089 244.497C202.089 243.433 201.683 242.593 200.872 241.977C200.06 241.348 198.947 241.033 197.533 241.033C196.161 241.033 195.014 241.39 194.09 242.103C193.18 242.817 192.725 243.657 192.725 244.623H188.862C188.862 242.649 189.688 241.033 191.339 239.773C192.991 238.513 195.056 237.883 197.533 237.883C200.193 237.883 202.264 238.457 203.748 239.605C205.232 240.739 205.974 242.362 205.974 244.476C205.974 245.498 205.666 246.436 205.05 247.289C204.434 248.143 203.559 248.822 202.425 249.326C205.071 250.222 206.394 251.986 206.394 254.617C206.394 256.703 205.589 258.354 203.979 259.572C202.369 260.79 200.221 261.399 197.533 261.399C194.916 261.399 192.753 260.762 191.045 259.488C189.352 258.2 188.505 256.465 188.505 254.281H192.368C192.368 255.387 192.858 256.339 193.838 257.137C194.832 257.921 196.063 258.312 197.533 258.312C199.017 258.312 200.214 257.97 201.124 257.284C202.033 256.598 202.488 255.709 202.488 254.617C202.488 253.343 202.103 252.434 201.333 251.888C200.578 251.328 199.395 251.048 197.785 251.048H193.901V247.772H198.121C200.767 247.702 202.089 246.611 202.089 244.497ZM211.79 261V238.282H220.65C223.673 238.282 225.99 238.814 227.6 239.878C229.223 240.928 230.035 242.474 230.035 244.518C230.035 245.568 229.72 246.52 229.09 247.373C228.46 248.213 227.53 248.857 226.298 249.305C227.67 249.627 228.768 250.257 229.594 251.195C230.434 252.133 230.854 253.252 230.854 254.554C230.854 256.64 230.084 258.235 228.544 259.341C227.019 260.447 224.856 261 222.057 261H211.79ZM215.674 251.027V257.872H222.099C223.722 257.872 224.933 257.571 225.731 256.969C226.543 256.367 226.949 255.52 226.949 254.428C226.949 252.161 225.283 251.027 221.952 251.027H215.674ZM215.674 247.919H220.692C224.331 247.919 226.151 246.856 226.151 244.728C226.151 242.6 224.429 241.502 220.986 241.432H215.674V247.919ZM250.695 238.282H254.58V261H250.695V244.434L240.218 261H236.334V238.282H240.218V254.869L250.695 238.282ZM279.376 261H275.492V251.3H265.057V261H261.151V238.282H265.057V248.129H275.492V238.282H279.376V261ZM300.33 238.282H304.214V261H300.33V244.434L289.853 261H285.969V238.282H289.853V254.869L300.33 238.282ZM327.331 241.432H319.709V261H315.825V241.432H308.351V238.282H327.331V241.432ZM338.858 261.42C335.778 261.42 333.273 260.412 331.341 258.396C329.41 256.367 328.444 253.658 328.444 250.271V249.557C328.444 247.303 328.871 245.295 329.725 243.531C330.592 241.754 331.796 240.368 333.336 239.374C334.89 238.366 336.569 237.862 338.375 237.862C341.328 237.862 343.624 238.835 345.262 240.781C346.899 242.726 347.718 245.512 347.718 249.137V250.754H332.328C332.384 252.993 333.035 254.806 334.281 256.192C335.541 257.564 337.136 258.249 339.068 258.249C340.44 258.249 341.601 257.97 342.553 257.41C343.505 256.85 344.338 256.108 345.052 255.184L347.424 257.032C345.521 259.957 342.665 261.42 338.858 261.42ZM338.375 241.054C336.807 241.054 335.492 241.628 334.428 242.775C333.364 243.909 332.706 245.505 332.454 247.562H343.834V247.268C343.722 245.295 343.19 243.769 342.238 242.691C341.286 241.6 339.999 241.054 338.375 241.054ZM352.316 258.963C352.316 258.291 352.512 257.732 352.904 257.284C353.31 256.836 353.912 256.612 354.71 256.612C355.508 256.612 356.11 256.836 356.516 257.284C356.936 257.732 357.146 258.291 357.146 258.963C357.146 259.607 356.936 260.146 356.516 260.58C356.11 261.014 355.508 261.231 354.71 261.231C353.912 261.231 353.31 261.014 352.904 260.58C352.512 260.146 352.316 259.607 352.316 258.963ZM363.654 258.963C363.654 258.291 363.85 257.732 364.242 257.284C364.648 256.836 365.25 256.612 366.048 256.612C366.846 256.612 367.448 256.836 367.854 257.284C368.273 257.732 368.483 258.291 368.483 258.963C368.483 259.607 368.273 260.146 367.854 260.58C367.448 261.014 366.846 261.231 366.048 261.231C365.25 261.231 364.648 261.014 364.242 260.58C363.85 260.146 363.654 259.607 363.654 258.963ZM374.992 258.963C374.992 258.291 375.188 257.732 375.58 257.284C375.986 256.836 376.588 256.612 377.386 256.612C378.184 256.612 378.785 256.836 379.191 257.284C379.611 257.732 379.821 258.291 379.821 258.963C379.821 259.607 379.611 260.146 379.191 260.58C378.785 261.014 378.184 261.231 377.386 261.231C376.588 261.231 375.986 261.014 375.58 260.58C375.188 260.146 374.992 259.607 374.992 258.963Z" fill="#009CE9"/>
<path d="M52.3672 309.36L57.623 297.516H59.4639L52.3164 312.991L51.8594 313.867C50.9622 315.467 49.6419 316.267 47.8984 316.267C47.3822 316.267 46.9844 316.22 46.7051 316.127L46.8447 314.857C47.0225 314.917 47.3779 314.946 47.9111 314.946C48.9606 314.946 49.8027 314.409 50.4375 313.334L50.7549 312.763L51.5547 311.112L44.5596 297.516H46.3496L52.3672 309.36ZM72.667 309.652H70.8389V316H69.3154V309.652H67.5L62.4219 316H60.4922L66.1797 308.954L61.127 302.264H62.9678L67.4746 308.294H69.3154V302.264H70.8389V308.294H72.6924L77.1992 302.264H79.0654L73.9873 308.954L79.6875 316H77.7451L72.667 309.652ZM87.1904 316.254C86.0225 316.254 84.9645 315.966 84.0166 315.391C83.0771 314.815 82.3451 314.015 81.8203 312.991C81.2956 311.959 81.0332 310.803 81.0332 309.525V308.979C81.0332 307.659 81.2871 306.47 81.7949 305.412C82.3112 304.354 83.0264 303.525 83.9404 302.924C84.8545 302.314 85.8447 302.01 86.9111 302.01C88.5785 302.01 89.8988 302.581 90.8721 303.724C91.8538 304.858 92.3447 306.411 92.3447 308.383V309.233H82.5439V309.525C82.5439 311.083 82.9883 312.382 83.877 313.423C84.7741 314.455 85.8997 314.972 87.2539 314.972C88.0664 314.972 88.7816 314.824 89.3994 314.527C90.0257 314.231 90.5928 313.757 91.1006 313.105L92.0527 313.829C90.9355 315.446 89.3148 316.254 87.1904 316.254ZM86.9111 303.305C85.7686 303.305 84.8037 303.724 84.0166 304.562C83.238 305.399 82.764 306.525 82.5947 307.938H90.834V307.773C90.7917 306.453 90.415 305.378 89.7041 304.549C88.9932 303.719 88.0622 303.305 86.9111 303.305ZM109.674 305.895C109.674 305.065 109.365 304.426 108.747 303.978C108.129 303.529 107.279 303.305 106.195 303.305C105.214 303.305 104.371 303.559 103.669 304.066C102.975 304.566 102.628 305.201 102.628 305.971H101.117C101.117 304.828 101.604 303.884 102.577 303.14C103.559 302.395 104.765 302.022 106.195 302.022C107.77 302.022 108.997 302.361 109.877 303.038C110.757 303.715 111.197 304.676 111.197 305.92C111.197 306.58 110.994 307.177 110.588 307.71C110.182 308.243 109.589 308.658 108.811 308.954C110.571 309.437 111.451 310.528 111.451 312.229C111.451 313.465 110.973 314.443 110.017 315.162C109.06 315.882 107.791 316.241 106.208 316.241C104.676 316.241 103.407 315.856 102.399 315.086C101.392 314.316 100.889 313.309 100.889 312.064H102.412C102.412 312.894 102.776 313.588 103.504 314.146C104.24 314.697 105.142 314.972 106.208 314.972C107.368 314.972 108.273 314.73 108.925 314.248C109.585 313.757 109.915 313.093 109.915 312.255C109.915 311.332 109.615 310.668 109.014 310.262C108.413 309.855 107.494 309.652 106.259 309.652H104.164V308.332H106.513C108.62 308.281 109.674 307.469 109.674 305.895ZM125.353 316H123.829V309.703H116.428V316H114.904V302.264H116.428V308.421H123.829V302.264H125.353V316ZM138.099 316C137.946 315.568 137.849 314.929 137.807 314.083C137.273 314.777 136.592 315.314 135.763 315.695C134.942 316.068 134.07 316.254 133.147 316.254C131.827 316.254 130.757 315.886 129.936 315.149C129.123 314.413 128.717 313.482 128.717 312.356C128.717 311.019 129.271 309.961 130.38 309.183C131.497 308.404 133.05 308.015 135.039 308.015H137.794V306.453C137.794 305.471 137.489 304.701 136.88 304.143C136.279 303.576 135.399 303.292 134.239 303.292C133.181 303.292 132.305 303.563 131.611 304.104C130.917 304.646 130.57 305.298 130.57 306.06L129.047 306.047C129.047 304.955 129.555 304.011 130.57 303.216C131.586 302.412 132.834 302.01 134.315 302.01C135.847 302.01 137.053 302.395 137.934 303.165C138.822 303.927 139.279 304.993 139.305 306.364V312.864C139.305 314.193 139.444 315.188 139.724 315.848V316H138.099ZM133.325 314.908C134.341 314.908 135.246 314.663 136.042 314.172C136.846 313.681 137.43 313.025 137.794 312.204V309.183H135.077C133.562 309.2 132.377 309.479 131.522 310.021C130.668 310.554 130.24 311.29 130.24 312.229C130.24 313 130.524 313.639 131.091 314.146C131.666 314.654 132.411 314.908 133.325 314.908ZM148.687 316.254C147.519 316.254 146.461 315.966 145.513 315.391C144.573 314.815 143.841 314.015 143.316 312.991C142.792 311.959 142.529 310.803 142.529 309.525V308.979C142.529 307.659 142.783 306.47 143.291 305.412C143.807 304.354 144.522 303.525 145.437 302.924C146.351 302.314 147.341 302.01 148.407 302.01C150.075 302.01 151.395 302.581 152.368 303.724C153.35 304.858 153.841 306.411 153.841 308.383V309.233H144.04V309.525C144.04 311.083 144.484 312.382 145.373 313.423C146.27 314.455 147.396 314.972 148.75 314.972C149.562 314.972 150.278 314.824 150.896 314.527C151.522 314.231 152.089 313.757 152.597 313.105L153.549 313.829C152.432 315.446 150.811 316.254 148.687 316.254ZM148.407 303.305C147.265 303.305 146.3 303.724 145.513 304.562C144.734 305.399 144.26 306.525 144.091 307.938H152.33V307.773C152.288 306.453 151.911 305.378 151.2 304.549C150.489 303.719 149.558 303.305 148.407 303.305ZM164.403 313.943L169.862 302.264H171.741V316H170.218V304.727L164.937 316H163.857L158.475 304.473V316H156.964V302.264H158.957L164.403 313.943ZM181.301 308.929C181.301 307.608 181.555 306.419 182.062 305.361C182.579 304.303 183.302 303.482 184.233 302.898C185.173 302.306 186.235 302.01 187.42 302.01C189.248 302.01 190.729 302.653 191.863 303.939C192.997 305.217 193.564 306.914 193.564 309.03V309.348C193.564 310.676 193.306 311.874 192.79 312.94C192.282 313.998 191.563 314.815 190.632 315.391C189.701 315.966 188.639 316.254 187.445 316.254C185.626 316.254 184.145 315.615 183.002 314.337C181.868 313.05 181.301 311.349 181.301 309.233V308.929ZM182.824 309.348C182.824 310.99 183.247 312.34 184.094 313.397C184.949 314.447 186.066 314.972 187.445 314.972C188.816 314.972 189.925 314.447 190.771 313.397C191.626 312.34 192.054 310.947 192.054 309.221V308.929C192.054 307.879 191.859 306.919 191.47 306.047C191.08 305.175 190.535 304.502 189.832 304.028C189.13 303.546 188.326 303.305 187.42 303.305C186.066 303.305 184.961 303.838 184.106 304.904C183.252 305.962 182.824 307.35 182.824 309.068V309.348ZM213.585 316H212.062V303.571H204.66V316H203.137V302.264H213.585V316ZM228.705 309.271C228.705 311.413 228.231 313.114 227.283 314.375C226.335 315.628 225.066 316.254 223.475 316.254C221.596 316.254 220.157 315.594 219.158 314.273V321.281H217.647V302.264H219.057L219.133 304.206C220.123 302.742 221.558 302.01 223.437 302.01C225.078 302.01 226.365 302.632 227.296 303.876C228.235 305.12 228.705 306.847 228.705 309.056V309.271ZM227.182 309.005C227.182 307.253 226.822 305.869 226.103 304.854C225.383 303.838 224.38 303.33 223.094 303.33C222.163 303.33 221.363 303.554 220.694 304.003C220.026 304.451 219.514 305.103 219.158 305.958V312.547C219.522 313.334 220.043 313.935 220.72 314.35C221.397 314.764 222.197 314.972 223.119 314.972C224.397 314.972 225.392 314.464 226.103 313.448C226.822 312.424 227.182 310.943 227.182 309.005ZM231.244 308.929C231.244 307.608 231.498 306.419 232.006 305.361C232.522 304.303 233.246 303.482 234.177 302.898C235.116 302.306 236.178 302.01 237.363 302.01C239.191 302.01 240.673 302.653 241.807 303.939C242.941 305.217 243.508 306.914 243.508 309.03V309.348C243.508 310.676 243.25 311.874 242.733 312.94C242.226 313.998 241.506 314.815 240.575 315.391C239.644 315.966 238.582 316.254 237.389 316.254C235.569 316.254 234.088 315.615 232.945 314.337C231.811 313.05 231.244 311.349 231.244 309.233V308.929ZM232.768 309.348C232.768 310.99 233.191 312.34 234.037 313.397C234.892 314.447 236.009 314.972 237.389 314.972C238.76 314.972 239.868 314.447 240.715 313.397C241.57 312.34 241.997 310.947 241.997 309.221V308.929C241.997 307.879 241.802 306.919 241.413 306.047C241.024 305.175 240.478 304.502 239.775 304.028C239.073 303.546 238.269 303.305 237.363 303.305C236.009 303.305 234.905 303.838 234.05 304.904C233.195 305.962 232.768 307.35 232.768 309.068V309.348ZM252.191 303.178C253.935 303.178 255.348 303.749 256.432 304.892C257.515 306.026 258.057 307.532 258.057 309.411V309.741C258.057 310.985 257.807 312.107 257.308 313.105C256.817 314.096 256.106 314.87 255.175 315.429C254.252 315.979 253.19 316.254 251.988 316.254C250.177 316.254 248.709 315.653 247.583 314.451C246.466 313.241 245.907 311.629 245.907 309.614V308.396C245.907 305.552 246.449 303.279 247.532 301.578C248.616 299.877 250.156 298.861 252.153 298.531C253.414 298.328 254.299 298.053 254.807 297.706C255.323 297.359 255.581 296.885 255.581 296.284H256.889C256.889 296.995 256.741 297.583 256.444 298.049C256.148 298.514 255.704 298.891 255.111 299.179C254.519 299.458 253.613 299.695 252.395 299.89C250.998 300.11 249.872 300.706 249.018 301.68C248.171 302.645 247.621 303.939 247.367 305.564C247.909 304.854 248.586 304.278 249.398 303.838C250.219 303.398 251.15 303.178 252.191 303.178ZM247.431 309.424V309.741C247.431 311.29 247.85 312.551 248.688 313.524C249.525 314.489 250.626 314.972 251.988 314.972C253.359 314.972 254.46 314.485 255.289 313.512C256.118 312.53 256.533 311.243 256.533 309.652V309.322C256.533 307.892 256.11 306.724 255.264 305.818C254.426 304.913 253.326 304.46 251.963 304.46C250.6 304.46 249.504 304.921 248.675 305.844C247.845 306.758 247.431 307.951 247.431 309.424ZM271.539 302.264V316H270.016V303.571H264.392L264.15 308.713C264.049 310.617 263.858 312.073 263.579 313.08C263.3 314.079 262.885 314.815 262.335 315.289C261.785 315.763 261.053 316 260.139 316H259.555V314.654L260.024 314.629C260.896 314.612 261.522 314.189 261.903 313.359C262.284 312.53 262.534 311.049 262.652 308.916L262.932 302.264H271.539ZM280.946 316.254C279.778 316.254 278.72 315.966 277.772 315.391C276.833 314.815 276.101 314.015 275.576 312.991C275.051 311.959 274.789 310.803 274.789 309.525V308.979C274.789 307.659 275.043 306.47 275.551 305.412C276.067 304.354 276.782 303.525 277.696 302.924C278.61 302.314 279.601 302.01 280.667 302.01C282.334 302.01 283.655 302.581 284.628 303.724C285.61 304.858 286.101 306.411 286.101 308.383V309.233H276.3V309.525C276.3 311.083 276.744 312.382 277.633 313.423C278.53 314.455 279.656 314.972 281.01 314.972C281.822 314.972 282.537 314.824 283.155 314.527C283.782 314.231 284.349 313.757 284.856 313.105L285.809 313.829C284.691 315.446 283.071 316.254 280.946 316.254ZM280.667 303.305C279.524 303.305 278.56 303.724 277.772 304.562C276.994 305.399 276.52 306.525 276.351 307.938H284.59V307.773C284.548 306.453 284.171 305.378 283.46 304.549C282.749 303.719 281.818 303.305 280.667 303.305ZM296.663 313.943L302.122 302.264H304.001V316H302.478V304.727L297.196 316H296.117L290.734 304.473V316H289.224V302.264H291.217L296.663 313.943ZM313.396 316.254C312.228 316.254 311.17 315.966 310.222 315.391C309.282 314.815 308.55 314.015 308.025 312.991C307.501 311.959 307.238 310.803 307.238 309.525V308.979C307.238 307.659 307.492 306.47 308 305.412C308.516 304.354 309.231 303.525 310.146 302.924C311.06 302.314 312.05 302.01 313.116 302.01C314.784 302.01 316.104 302.581 317.077 303.724C318.059 304.858 318.55 306.411 318.55 308.383V309.233H308.749V309.525C308.749 311.083 309.193 312.382 310.082 313.423C310.979 314.455 312.105 314.972 313.459 314.972C314.271 314.972 314.987 314.824 315.604 314.527C316.231 314.231 316.798 313.757 317.306 313.105L318.258 313.829C317.141 315.446 315.52 316.254 313.396 316.254ZM313.116 303.305C311.974 303.305 311.009 303.724 310.222 304.562C309.443 305.399 308.969 306.525 308.8 307.938H317.039V307.773C316.997 306.453 316.62 305.378 315.909 304.549C315.198 303.719 314.267 303.305 313.116 303.305ZM321.19 319.453L320.289 318.793C321.059 317.76 321.457 316.69 321.482 315.581V313.613H322.968V315.2C322.968 316.961 322.375 318.378 321.19 319.453ZM343.852 309.271C343.852 311.413 343.378 313.114 342.43 314.375C341.482 315.628 340.212 316.254 338.621 316.254C336.742 316.254 335.303 315.594 334.305 314.273V321.281H332.794V302.264H334.203L334.279 304.206C335.27 302.742 336.704 302.01 338.583 302.01C340.225 302.01 341.511 302.632 342.442 303.876C343.382 305.12 343.852 306.847 343.852 309.056V309.271ZM342.328 309.005C342.328 307.253 341.968 305.869 341.249 304.854C340.53 303.838 339.527 303.33 338.24 303.33C337.309 303.33 336.509 303.554 335.841 304.003C335.172 304.451 334.66 305.103 334.305 305.958V312.547C334.669 313.334 335.189 313.935 335.866 314.35C336.543 314.764 337.343 314.972 338.266 314.972C339.544 314.972 340.538 314.464 341.249 313.448C341.968 312.424 342.328 310.943 342.328 309.005ZM355.899 316C355.747 315.568 355.65 314.929 355.607 314.083C355.074 314.777 354.393 315.314 353.563 315.695C352.743 316.068 351.871 316.254 350.948 316.254C349.628 316.254 348.557 315.886 347.736 315.149C346.924 314.413 346.518 313.482 346.518 312.356C346.518 311.019 347.072 309.961 348.181 309.183C349.298 308.404 350.851 308.015 352.84 308.015H355.595V306.453C355.595 305.471 355.29 304.701 354.681 304.143C354.08 303.576 353.2 303.292 352.04 303.292C350.982 303.292 350.106 303.563 349.412 304.104C348.718 304.646 348.371 305.298 348.371 306.06L346.848 306.047C346.848 304.955 347.355 304.011 348.371 303.216C349.387 302.412 350.635 302.01 352.116 302.01C353.648 302.01 354.854 302.395 355.734 303.165C356.623 303.927 357.08 304.993 357.105 306.364V312.864C357.105 314.193 357.245 315.188 357.524 315.848V316H355.899ZM351.126 314.908C352.142 314.908 353.047 314.663 353.843 314.172C354.647 313.681 355.231 313.025 355.595 312.204V309.183H352.878C351.363 309.2 350.178 309.479 349.323 310.021C348.468 310.554 348.041 311.29 348.041 312.229C348.041 313 348.325 313.639 348.892 314.146C349.467 314.654 350.212 314.908 351.126 314.908ZM366.703 303.178C368.447 303.178 369.86 303.749 370.943 304.892C372.027 306.026 372.568 307.532 372.568 309.411V309.741C372.568 310.985 372.319 312.107 371.819 313.105C371.328 314.096 370.618 314.87 369.687 315.429C368.764 315.979 367.702 316.254 366.5 316.254C364.689 316.254 363.22 315.653 362.095 314.451C360.978 313.241 360.419 311.629 360.419 309.614V308.396C360.419 305.552 360.961 303.279 362.044 301.578C363.127 299.877 364.668 298.861 366.665 298.531C367.926 298.328 368.811 298.053 369.318 297.706C369.835 297.359 370.093 296.885 370.093 296.284H371.4C371.4 296.995 371.252 297.583 370.956 298.049C370.66 298.514 370.215 298.891 369.623 299.179C369.031 299.458 368.125 299.695 366.906 299.89C365.51 300.11 364.384 300.706 363.529 301.68C362.683 302.645 362.133 303.939 361.879 305.564C362.421 304.854 363.098 304.278 363.91 303.838C364.731 303.398 365.662 303.178 366.703 303.178ZM361.942 309.424V309.741C361.942 311.29 362.361 312.551 363.199 313.524C364.037 314.489 365.137 314.972 366.5 314.972C367.871 314.972 368.971 314.485 369.801 313.512C370.63 312.53 371.045 311.243 371.045 309.652V309.322C371.045 307.892 370.622 306.724 369.775 305.818C368.938 304.913 367.837 304.46 366.475 304.46C365.112 304.46 364.016 304.921 363.187 305.844C362.357 306.758 361.942 307.951 361.942 309.424ZM374.65 308.929C374.65 307.608 374.904 306.419 375.412 305.361C375.928 304.303 376.652 303.482 377.583 302.898C378.522 302.306 379.585 302.01 380.77 302.01C382.598 302.01 384.079 302.653 385.213 303.939C386.347 305.217 386.914 306.914 386.914 309.03V309.348C386.914 310.676 386.656 311.874 386.14 312.94C385.632 313.998 384.912 314.815 383.981 315.391C383.05 315.966 381.988 316.254 380.795 316.254C378.975 316.254 377.494 315.615 376.352 314.337C375.217 313.05 374.65 311.349 374.65 309.233V308.929ZM376.174 309.348C376.174 310.99 376.597 312.34 377.443 313.397C378.298 314.447 379.415 314.972 380.795 314.972C382.166 314.972 383.275 314.447 384.121 313.397C384.976 312.34 385.403 310.947 385.403 309.221V308.929C385.403 307.879 385.209 306.919 384.819 306.047C384.43 305.175 383.884 304.502 383.182 304.028C382.479 303.546 381.675 303.305 380.77 303.305C379.415 303.305 378.311 303.838 377.456 304.904C376.601 305.962 376.174 307.35 376.174 309.068V309.348ZM399.647 303.559H394.646V316H393.122V303.559H388.311V302.264H399.647V303.559ZM410.616 316C410.464 315.568 410.367 314.929 410.324 314.083C409.791 314.777 409.11 315.314 408.28 315.695C407.459 316.068 406.588 316.254 405.665 316.254C404.345 316.254 403.274 315.886 402.453 315.149C401.641 314.413 401.234 313.482 401.234 312.356C401.234 311.019 401.789 309.961 402.897 309.183C404.015 308.404 405.568 308.015 407.557 308.015H410.312V306.453C410.312 305.471 410.007 304.701 409.397 304.143C408.797 303.576 407.916 303.292 406.757 303.292C405.699 303.292 404.823 303.563 404.129 304.104C403.435 304.646 403.088 305.298 403.088 306.06L401.564 306.047C401.564 304.955 402.072 304.011 403.088 303.216C404.104 302.412 405.352 302.01 406.833 302.01C408.365 302.01 409.571 302.395 410.451 303.165C411.34 303.927 411.797 304.993 411.822 306.364V312.864C411.822 314.193 411.962 315.188 412.241 315.848V316H410.616ZM405.843 314.908C406.858 314.908 407.764 314.663 408.56 314.172C409.364 313.681 409.948 313.025 410.312 312.204V309.183H407.595C406.08 309.2 404.895 309.479 404.04 310.021C403.185 310.554 402.758 311.29 402.758 312.229C402.758 313 403.041 313.639 403.608 314.146C404.184 314.654 404.929 314.908 405.843 314.908ZM421.204 316.254C420.036 316.254 418.978 315.966 418.03 315.391C417.091 314.815 416.359 314.015 415.834 312.991C415.309 311.959 415.047 310.803 415.047 309.525V308.979C415.047 307.659 415.301 306.47 415.809 305.412C416.325 304.354 417.04 303.525 417.954 302.924C418.868 302.314 419.858 302.01 420.925 302.01C422.592 302.01 423.912 302.581 424.886 303.724C425.868 304.858 426.358 306.411 426.358 308.383V309.233H416.558V309.525C416.558 311.083 417.002 312.382 417.891 313.423C418.788 314.455 419.913 314.972 421.268 314.972C422.08 314.972 422.795 314.824 423.413 314.527C424.039 314.231 424.606 313.757 425.114 313.105L426.066 313.829C424.949 315.446 423.328 316.254 421.204 316.254ZM420.925 303.305C419.782 303.305 418.817 303.724 418.03 304.562C417.252 305.399 416.778 306.525 416.608 307.938H424.848V307.773C424.805 306.453 424.429 305.378 423.718 304.549C423.007 303.719 422.076 303.305 420.925 303.305ZM436.921 313.943L442.38 302.264H444.259V316H442.735V304.727L437.454 316H436.375L430.992 304.473V316H429.481V302.264H431.475L436.921 313.943ZM465.206 316H463.683V309.703H456.281V316H454.758V302.264H456.281V308.421H463.683V302.264H465.206V316ZM477.952 316C477.8 315.568 477.702 314.929 477.66 314.083C477.127 314.777 476.446 315.314 475.616 315.695C474.795 316.068 473.924 316.254 473.001 316.254C471.681 316.254 470.61 315.886 469.789 315.149C468.977 314.413 468.57 313.482 468.57 312.356C468.57 311.019 469.125 309.961 470.233 309.183C471.351 308.404 472.904 308.015 474.893 308.015H477.647V306.453C477.647 305.471 477.343 304.701 476.733 304.143C476.132 303.576 475.252 303.292 474.093 303.292C473.035 303.292 472.159 303.563 471.465 304.104C470.771 304.646 470.424 305.298 470.424 306.06L468.9 306.047C468.9 304.955 469.408 304.011 470.424 303.216C471.439 302.412 472.688 302.01 474.169 302.01C475.701 302.01 476.907 302.395 477.787 303.165C478.676 303.927 479.133 304.993 479.158 306.364V312.864C479.158 314.193 479.298 315.188 479.577 315.848V316H477.952ZM473.179 314.908C474.194 314.908 475.1 314.663 475.896 314.172C476.7 313.681 477.284 313.025 477.647 312.204V309.183H474.931C473.416 309.2 472.231 309.479 471.376 310.021C470.521 310.554 470.094 311.29 470.094 312.229C470.094 313 470.377 313.639 470.944 314.146C471.52 314.654 472.265 314.908 473.179 314.908ZM482.903 314.718L483.576 313.842C484.643 312.395 485.256 310.279 485.417 307.494L485.658 302.264H493.771V314.718H495.192V320.037H493.682V316H483.36V320.037H481.9L481.913 314.718H482.903ZM484.655 314.718H492.247V303.686H487.105L486.94 307.253C486.788 310.528 486.026 313.017 484.655 314.718ZM182.672 352.254C181.504 352.254 180.446 351.966 179.498 351.391C178.559 350.815 177.826 350.015 177.302 348.991C176.777 347.959 176.515 346.803 176.515 345.525V344.979C176.515 343.659 176.769 342.47 177.276 341.412C177.793 340.354 178.508 339.525 179.422 338.924C180.336 338.314 181.326 338.01 182.393 338.01C184.06 338.01 185.38 338.581 186.354 339.724C187.335 340.858 187.826 342.411 187.826 344.383V345.233H178.025V345.525C178.025 347.083 178.47 348.382 179.358 349.423C180.256 350.455 181.381 350.972 182.735 350.972C183.548 350.972 184.263 350.824 184.881 350.527C185.507 350.231 186.074 349.757 186.582 349.105L187.534 349.829C186.417 351.446 184.796 352.254 182.672 352.254ZM182.393 339.305C181.25 339.305 180.285 339.724 179.498 340.562C178.719 341.399 178.245 342.525 178.076 343.938H186.315V343.773C186.273 342.453 185.896 341.378 185.186 340.549C184.475 339.719 183.544 339.305 182.393 339.305ZM196.104 352.254C194.936 352.254 193.878 351.966 192.93 351.391C191.99 350.815 191.258 350.015 190.733 348.991C190.209 347.959 189.946 346.803 189.946 345.525V344.979C189.946 343.659 190.2 342.47 190.708 341.412C191.224 340.354 191.939 339.525 192.854 338.924C193.768 338.314 194.758 338.01 195.824 338.01C197.492 338.01 198.812 338.581 199.785 339.724C200.767 340.858 201.258 342.411 201.258 344.383V345.233H191.457V345.525C191.457 347.083 191.901 348.382 192.79 349.423C193.687 350.455 194.813 350.972 196.167 350.972C196.979 350.972 197.695 350.824 198.312 350.527C198.939 350.231 199.506 349.757 200.014 349.105L200.966 349.829C199.849 351.446 198.228 352.254 196.104 352.254ZM195.824 339.305C194.682 339.305 193.717 339.724 192.93 340.562C192.151 341.399 191.677 342.525 191.508 343.938H199.747V343.773C199.705 342.453 199.328 341.378 198.617 340.549C197.906 339.719 196.975 339.305 195.824 339.305ZM214.893 349.816L218.904 338.264H220.542L214.677 354.336L214.372 355.047C213.619 356.714 212.455 357.548 210.881 357.548C210.517 357.548 210.128 357.489 209.713 357.37L209.7 356.113L210.487 356.189C211.232 356.189 211.833 356.003 212.29 355.631C212.756 355.267 213.149 354.636 213.471 353.739L214.144 351.886L208.964 338.264H210.627L214.893 349.816ZM227.804 350.972C228.862 350.972 229.746 350.675 230.457 350.083C231.176 349.482 231.566 348.708 231.625 347.76H233.085C233.043 348.598 232.78 349.364 232.298 350.058C231.815 350.743 231.172 351.281 230.368 351.67C229.573 352.059 228.718 352.254 227.804 352.254C226.001 352.254 224.571 351.628 223.513 350.375C222.463 349.122 221.938 347.438 221.938 345.322V344.865C221.938 343.511 222.175 342.313 222.649 341.272C223.123 340.231 223.8 339.427 224.681 338.86C225.569 338.293 226.606 338.01 227.791 338.01C229.298 338.01 230.537 338.458 231.511 339.355C232.493 340.253 233.017 341.433 233.085 342.897H231.625C231.557 341.823 231.168 340.955 230.457 340.295C229.755 339.635 228.866 339.305 227.791 339.305C226.42 339.305 225.354 339.8 224.592 340.79C223.839 341.78 223.462 343.168 223.462 344.954V345.398C223.462 347.15 223.839 348.517 224.592 349.499C225.354 350.481 226.424 350.972 227.804 350.972ZM245.996 339.559H240.994V352H239.471V339.559H234.659V338.264H245.996V339.559ZM259.542 345.271C259.542 347.413 259.068 349.114 258.12 350.375C257.172 351.628 255.903 352.254 254.312 352.254C252.433 352.254 250.994 351.594 249.995 350.273V357.281H248.484V338.264H249.894L249.97 340.206C250.96 338.742 252.395 338.01 254.273 338.01C255.915 338.01 257.202 338.632 258.133 339.876C259.072 341.12 259.542 342.847 259.542 345.056V345.271ZM258.019 345.005C258.019 343.253 257.659 341.869 256.939 340.854C256.22 339.838 255.217 339.33 253.931 339.33C253 339.33 252.2 339.554 251.531 340.003C250.863 340.451 250.351 341.103 249.995 341.958V348.547C250.359 349.334 250.88 349.935 251.557 350.35C252.234 350.764 253.034 350.972 253.956 350.972C255.234 350.972 256.229 350.464 256.939 349.448C257.659 348.424 258.019 346.943 258.019 345.005ZM271.59 352C271.438 351.568 271.34 350.929 271.298 350.083C270.765 350.777 270.083 351.314 269.254 351.695C268.433 352.068 267.561 352.254 266.639 352.254C265.318 352.254 264.248 351.886 263.427 351.149C262.614 350.413 262.208 349.482 262.208 348.356C262.208 347.019 262.762 345.961 263.871 345.183C264.988 344.404 266.541 344.015 268.53 344.015H271.285V342.453C271.285 341.471 270.98 340.701 270.371 340.143C269.77 339.576 268.89 339.292 267.73 339.292C266.673 339.292 265.797 339.563 265.103 340.104C264.409 340.646 264.062 341.298 264.062 342.06L262.538 342.047C262.538 340.955 263.046 340.011 264.062 339.216C265.077 338.412 266.326 338.01 267.807 338.01C269.339 338.01 270.545 338.395 271.425 339.165C272.313 339.927 272.771 340.993 272.796 342.364V348.864C272.796 350.193 272.936 351.188 273.215 351.848V352H271.59ZM266.816 350.908C267.832 350.908 268.738 350.663 269.533 350.172C270.337 349.681 270.921 349.025 271.285 348.204V345.183H268.568C267.053 345.2 265.868 345.479 265.014 346.021C264.159 346.554 263.731 347.29 263.731 348.229C263.731 349 264.015 349.639 264.582 350.146C265.158 350.654 265.902 350.908 266.816 350.908ZM287.408 352H285.885V345.703H278.483V352H276.96V338.264H278.483V344.421H285.885V338.264H287.408V352ZM296.803 352.254C295.635 352.254 294.577 351.966 293.629 351.391C292.689 350.815 291.957 350.015 291.433 348.991C290.908 347.959 290.646 346.803 290.646 345.525V344.979C290.646 343.659 290.899 342.47 291.407 341.412C291.924 340.354 292.639 339.525 293.553 338.924C294.467 338.314 295.457 338.01 296.523 338.01C298.191 338.01 299.511 338.581 300.484 339.724C301.466 340.858 301.957 342.411 301.957 344.383V345.233H292.156V345.525C292.156 347.083 292.601 348.382 293.489 349.423C294.386 350.455 295.512 350.972 296.866 350.972C297.679 350.972 298.394 350.824 299.012 350.527C299.638 350.231 300.205 349.757 300.713 349.105L301.665 349.829C300.548 351.446 298.927 352.254 296.803 352.254ZM296.523 339.305C295.381 339.305 294.416 339.724 293.629 340.562C292.85 341.399 292.376 342.525 292.207 343.938H300.446V343.773C300.404 342.453 300.027 341.378 299.316 340.549C298.605 339.719 297.674 339.305 296.523 339.305ZM315.465 352H313.941V345.703H306.54V352H305.017V338.264H306.54V344.421H313.941V338.264H315.465V352ZM328.566 338.264H330.09V352H328.566V340.714L321.152 352H319.642V338.264H321.152V349.562L328.566 338.264ZM339.484 352.254C338.316 352.254 337.258 351.966 336.311 351.391C335.371 350.815 334.639 350.015 334.114 348.991C333.59 347.959 333.327 346.803 333.327 345.525V344.979C333.327 343.659 333.581 342.47 334.089 341.412C334.605 340.354 335.32 339.525 336.234 338.924C337.148 338.314 338.139 338.01 339.205 338.01C340.872 338.01 342.193 338.581 343.166 339.724C344.148 340.858 344.639 342.411 344.639 344.383V345.233H334.838V345.525C334.838 347.083 335.282 348.382 336.171 349.423C337.068 350.455 338.194 350.972 339.548 350.972C340.36 350.972 341.076 350.824 341.693 350.527C342.32 350.231 342.887 349.757 343.395 349.105L344.347 349.829C343.229 351.446 341.609 352.254 339.484 352.254ZM339.205 339.305C338.062 339.305 337.098 339.724 336.311 340.562C335.532 341.399 335.058 342.525 334.889 343.938H343.128V343.773C343.086 342.453 342.709 341.378 341.998 340.549C341.287 339.719 340.356 339.305 339.205 339.305ZM355.201 349.943L360.66 338.264H362.539V352H361.016V340.727L355.734 352H354.655L349.272 340.473V352H347.762V338.264H349.755L355.201 349.943Z" fill="#009CE9"/>
</svg>
